<?xml version="1.0" encoding="UTF-8" standalone="no"?>
<!DOCTYPE svg PUBLIC "-//W3C//DTD SVG 20010904//EN"
"http://www.w3.org/TR/2001/REC-SVG-20010904/DTD/svg10.dtd">
<!-- Created with Sodipodi ("http://www.sodipodi.com/") -->
<svg
   xml:space="preserve"
   width="200mm"
   height="208.59mm"
   style="shape-rendering:geometricPrecision; text-rendering:geometricPrecision; image-rendering:optimizeQuality; fill-rule:evenodd; clip-rule:evenodd"
   viewBox="0 0 200 208.59"
   xmlns="http://www.w3.org/2000/svg"
   xmlns:xml="http://www.w3.org/XML/1998/namespace"
   xmlns:sodipodi="http://sodipodi.sourceforge.net/DTD/sodipodi-0.dtd"
   xmlns:xlink="http://www.w3.org/1999/xlink"
   id="svg559"
   sodipodi:version="0.33beta"
   sodipodi:docname="C:\Documents and Settings\Sergio\Desktop\Bandeira_Limeira_SaoPaulo_Brasil.svg">
  <sodipodi:namedview
     id="base" />
  <defs
     id="defs560">
    <style
       type="text/css"
       id="style561">.str2 {stroke:#1F1A17;stroke-width:0.2793}
    .str5 {stroke:#1F1A17;stroke-width:0.3936}
    .str4 {stroke:#1F1A17;stroke-width:0.4088}
    .str0 {stroke:#1F1A17;stroke-width:0.4317}
    .str3 {stroke:#1F1A17;stroke-width:0.4622}
    .str1 {stroke:#1F1A17;stroke-width:0.0762}
    .fil1 {fill:none}
    .fil2 {fill:#0071B6}
    .fil4 {fill:#07A971}
    .fil6 {fill:#1F1A17}
    .fil5 {fill:#DA251D}
    .fil3 {fill:#FFF500}
    .fil0 {fill:white}</style>
  </defs>
  <g
     id="Camada_x0020_1">
    <metadata
       id="CorelCorpID_0Corel-Layer" />
    <path
       class="fil0"
       d="M144.569 69.6587l-91.2529 0 0.3845 56.5203c-0.1281,0.1282 64.1774,-0.0709 90.612,0.1282l0.2564 -56.6485z"
       id="path564" />
    <path
       class="fil1 str0"
       d="M53.3162 44.9871l0 78.2441c-0.064,14.2262 8.3948,14.2262 16.6614,14.2262l17.5584 0c3.4605,0.0641 9.8046,-0.6408 11.9193,8.3948 0.8331,-3.7808 3.2682,-8.3948 9.0997,-8.3948l25.1201 0c5.0625,0 10.6376,-5.6392 10.6376,-12.3678l0 -80.6152"
       id="path565" />
    <path
       class="fil2"
       d="M53.339 45.1993l1.8982 -0.8886 89.2037 0.0356 0.0381 25.2309c0,0 -91.2617,0 -91.2617,0l0.1217 -24.3779z"
       id="path566" />
    <path
       class="fil3"
       d="M23.0183 76.8015c-1.9974,0.6648 -2.7162,1.1891 -3.0681,2.525 1.2511,1.6487 2.8249,3.0943 4.4312,4.932 2.1148,-0.8212 2.9067,-1.9149 3.2195,-3.7591 0,-1.9225 -2.4679,-3.6979 -4.5826,-3.6979z"
       id="path567" />
    <path
       class="fil4"
       d="M57.7596 155.326c-1.0571,-0.9968 -1.8796,-2.1109 -2.9369,-3.1075 0.1889,-1.933 0.8863,-3.4751 1.5054,-5.2123 0.5333,-0.7539 1.2567,-3.7309 1.3848,-3.7309 -0.1281,0 0.2942,-1.122 -0.4909,-3.6635 -0.1923,0 -2.2505,-4.0372 -2.1223,-4.0372 -0.1282,0 -1.954,-3.3267 -1.8258,-3.3267 -0.1282,0 -0.9603,1.0858 -0.768,1.0858 -0.1923,0 -2.4079,-5.7444 -2.2797,-5.7444 -0.1282,0 -1.4631,4.6139 -1.3349,4.6139 -0.1282,0 -1.4206,5.1614 -1.0579,6.9209 -0.1281,0 3.6429,5.7891 3.771,5.7891 0.7322,1.3293 1.8107,5.1301 2.0812,6.1074 -0.1922,0 -3.6168,-4.7975 -3.4887,-4.7975 -0.1281,0 -4.9724,-7.5476 -4.7802,-7.5476 -0.3665,0 -7.3444,-13.1414 -7.6507,-13.87 0.7397,-0.8081 2.068,-1.3467 2.2603,-1.3467 -0.1923,0 4.4966,-1.5153 4.6888,-1.5153 -0.1922,0 3.1976,-1.3792 4.0296,-1.8485 1.1752,-0.7993 2.309,-1.9492 2.6208,-3.0151 0.4193,-1.4858 0.214,-4.589 0.4062,-4.589 -0.1922,0 -0.1433,-2.9424 -0.2889,-4.35 -0.1281,0 -3.2401,3.1368 -5.7706,3.6842 -0.1282,0 -0.7049,-8.8433 -0.5768,-8.8433 -0.1281,0 -4.6368,4.3826 -5.6957,6.6113 -0.1922,0 -1.5846,2.6688 -1.4315,4.0763 -0.1922,0 -0.4854,7.7486 -1.0611,8.9215 -0.1282,0 -2.2429,-5.4328 -2.1147,-5.4328 -0.1282,0 -2.2744,-7.2913 -2.1463,-7.2913 -0.1281,0 1.8887,-3.0206 2.8239,-3.998 1.841,-0.6257 5.3125,-1.7703 6.7309,-2.6698 1.0722,-0.7851 2.3516,-1.7266 3.4496,-2.9727 -0.1923,0 0.9188,-3.14 1.1111,-3.14 -0.1923,0 1.5337,-7.3987 1.5695,-8.3373 -0.1923,0 -4.0808,1.7704 -4.9442,2.5916 -1.0916,0.6648 -2.9271,2.9435 -2.7989,2.9435 -0.1282,0 -1.1285,-7.3869 -1.0003,-7.3869 -0.1282,0 -4.425,4.0839 -3.9981,4.3576 -0.1922,0 -2.3869,4.9237 -2.2588,4.9237 -0.1281,0 -0.5666,0.9527 -0.753,3.8555 0.115,1.6445 0.3511,5.1488 -0.4004,7.0506 -0.1923,0 -2.0348,-8.4604 -1.9066,-8.4604 -0.1282,0 -0.8346,-9.7823 -0.6423,-9.7823 -0.1923,0 -0.1484,-5.5333 -0.0202,-5.5333 -0.1282,0 0.0232,-4.5836 0.1514,-4.5836 -0.1282,0 5.7436,-3.192 5.8718,-3.192 -0.1282,0 3.8242,-3.3037 3.9524,-3.3037 0.4867,-0.5147 1.4171,-2.1062 1.6449,-2.7624 0.1923,-0.3845 1.3808,-5.369 1.5731,-5.369 -0.1923,0 2.4583,-4.6568 2.6505,-4.6568 -0.1922,0 -5.1174,2.1437 -7.4204,3.7453 -2.9339,2.1593 -4.2165,3.6537 -5.0206,4.769 -0.1281,0 -1.4436,2.9652 -1.6873,4.3523 -0.6146,1.6732 -1.8869,3.6618 -1.7587,3.6618 -0.1282,0 0.5401,-7.8483 0.6683,-7.8483 -0.1282,0 1.1038,-7.703 1.232,-7.703 -0.1282,0 5.0206,-0.8782 5.1487,-0.8782 -0.1281,0 4.4487,-2.1079 4.6409,-2.1079 1.4545,-1.1994 2.007,-1.9033 2.6486,-2.8607 0.029,-0.3575 1.5745,-3.8164 1.7027,-3.8164 -0.1282,0 1.7027,-6.5649 1.8309,-6.5649 -0.1282,0 -3.3043,1.1386 -3.1761,1.1386 -0.1282,0 -4.2686,2.7828 -4.1404,2.7828 -0.1282,0 0.8906,-3.7746 0.7841,-5.5732 -0.1281,0 -0.0618,-3.47 -1.0677,-6.3244 -0.1281,0 -1.0109,2.2537 -1.679,3.192 -0.1922,0 -4.1393,4.6638 -4.6368,5.2895 -0.1282,0 -1.3013,-3.7927 -2.6198,-5.9823 -0.1282,0 -2.7023,-3.4995 -2.5742,-3.4995 -0.1281,0 0.9461,3.9382 -1.4673,7.9656 -0.1281,0 -2.0615,-3.3379 -4.3717,-5.2147 -0.3095,1.0165 -1.0818,7.3773 -0.5767,8.3547 0.277,1.955 0.3509,3.0499 1.9507,4.6921 -0.1923,0 6.1594,5.9889 6.3517,5.9889 -1.3785,4.8859 -2.6612,19.7188 -2.6458,19.7188 -0.2846,-1.4075 -1.21,-6.7233 -1.0927,-8.726 -0.0391,-2.7848 -1.4315,-5.2547 -1.3033,-5.2547 -0.1282,0 -3.0326,-3.9198 -2.8403,-3.9198 -0.1923,0 -1.93,-1.9291 -1.8019,-1.9291 -0.1281,0 -0.9178,4.2067 -0.3595,5.8489 -0.1281,0 -4.048,-2.3385 -3.9198,-2.3385 -0.1282,0 0.0499,7.401 0.2422,7.401 -0.1923,0 1.577,5.1657 1.7052,5.1657 -0.1282,0 3.0598,3.1193 4.1653,3.393 1.5007,1.0369 5.0953,3.7768 5.0875,3.6494 -0.1923,0 -0.0315,10.8614 0.0966,10.8614 -0.1281,0 -2.5925,-5.3221 -2.4644,-5.3221 -0.1281,0 -2.3473,-4.2064 -3.3279,-4.9494 -0.1923,0 -1.891,-1.7313 -4.1089,-2.5916 -0.1281,0 -2.8816,-1.2317 -5.7391,-1.4272 -0.1922,0 1.1209,5.7099 3.2041,8.7205 -1.5357,-0.6648 -6.1955,-0.8407 -9.3126,-0.2932 -0.1281,0 5.4611,5.5459 5.6534,5.5459 1.3157,1.0051 4.3454,3.0562 6.116,3.304 -0.1281,0 10.0077,0.3421 10.1358,0.3421 0.1721,4.4411 2.5807,17.9904 2.723,17.8473 -0.1281,0 -3.6168,-5.9248 -3.4246,-5.9248 -0.1922,0 -2.3471,-2.5534 -2.2189,-2.5534 -0.1282,0 -5.093,-2.5133 -4.9648,-2.5133 -0.1282,0 -3.4355,-2.3658 -4.8463,-4.0079 -0.1922,0 -0.0641,6.3279 2.0973,9.9251 -0.1282,0 -6.7089,0.3204 -6.5167,0.3204 1.2935,0.5084 3.9882,1.7487 5.94,3.9774 -0.1923,0 5.0624,3.6951 5.2547,3.6951 2.8965,0.5865 5.422,0.1097 5.6142,0.1097 -0.1922,0 4.0773,4.3326 5.7826,6.2061 0.4397,1.7703 3.3019,9.8732 5.7837,13.4204 -3.0063,-2.6057 -5.9715,-5.0201 -5.8433,-5.0201 -0.1282,0 -3.3335,-1.8748 -3.2054,-1.8748 -0.1281,0 -1.2924,-0.4692 -3.2366,-0.391 -0.1282,0 -5.4255,0.6744 -8.1266,-0.9287 -0.1922,0 2.1811,4.4456 2.3733,4.4456 -0.1922,0 3.8992,4.0089 4.0274,4.0089 -0.1282,0 -3.6961,0.2662 -3.5679,0.2662 -0.1282,0 3.6743,4.5216 3.8025,4.5216 -0.0641,0 0.8565,1.1007 2.1609,1.8099 1.3043,0.7095 2.9929,1.0281 3.057,1.0281 -0.1282,0 3.1095,-0.215 3.3017,-0.215 -0.1922,0 7.8778,-3.4518 8.0701,-3.4518 1.5231,2.4798 6.0545,9.6234 9.1486,12.7904 -0.1282,0 -5.6882,-0.907 -5.56,-0.907 -0.1282,0 -3.9981,0.0782 -3.8699,0.0782 -0.1282,0 -5.774,0.7408 -5.6458,0.7408 -0.1282,0 8.6675,5.8965 10.0076,6.5646 3.3517,-1.3717 6.1693,-3.8025 6.6028,-4.6139 0.4725,0.4791 1.2869,1.3033 1.8843,2.0854 -0.1281,0 -3.2954,0.8949 -6.9599,3.3865 -0.1282,0.1282 2.7752,1.5034 4.3164,2.0322 1.3457,-0.5126 3.0704,-1.4544 3.0704,-1.4544 0,0 3.304,-4.7257 2.9836,-4.2771z"
       id="path568" />
    <path
       class="fil3"
       d="M27.5553 54.4256l2.6664 2.7186 -0.908 4.4152c-0.064,0.2563 -1.791,0.0249 -2.2211,-0.2955 0,0.3204 -1.7802,-1.1535 -1.5239,-1.4098 -0.882,-1.2685 -0.3877,-3.001 -0.3877,-2.9619 0.4786,-1.0959 1.3873,-1.7226 2.3743,-2.4666z"
       id="path569" />
    <path
       class="fil3"
       d="M35.7219 60.8512l-2.0148 0.2954 -1.4978 1.3631 -0.5919 2.0756c-0.3628,0.3845 1.1785,3.4779 1.4348,3.2215 -0.2563,0.2564 1.6893,-2.3622 5.2048,-4.7062 -0.3911,-1.1946 -2.5351,-2.2494 -2.5351,-2.2494z"
       id="path570" />
    <path
       class="fil3"
       d="M43.5932 141.554l-2.4525 0.0043 -2.0116 1.2567c-0.3204,0.1922 -1.0361,1.6694 -0.7798,1.413 -0.2563,0.2564 -0.2879,2.8055 -0.0315,2.5492 -0.2564,0.2563 2.0539,2.4742 2.3102,2.2179 -0.2563,0.2563 2.9402,0.3312 3.3247,0.2031 1.323,-0.4801 2.8305,-2.6165 2.5492,-2.9902l-2.9087 -4.654z"
       id="path571" />
    <path
       class="fil4"
       d="M104.583 120.296l-10.8535 -0.1915 2.9341 -1.0284c0.7892,-4.519 0.4059,-11.8006 0.5982,-11.8006 -1.6964,-0.1249 -3.3888,-0.7973 -4.0526,-1.4217 -0.2005,0.1332 -2.4681,0.7533 -2.34,0.7533 -1.0008,0.0417 -2.6531,-0.639 -3.1233,-0.8555 -0.2861,0.2415 -1.9598,0.5967 -2.4884,0.6217 -0.8929,-0.1582 -2.6882,-1.2292 -2.56,-1.2292 -0.1282,0 -3.744,-0.3928 -3.6158,-0.3928 -0.1282,0 -1.2723,-1.2516 -1.3758,-1.5587 -0.3204,-0.5368 0.2743,-3.3923 0.4024,-3.3923 -0.1281,0 -0.6009,-2.7114 -0.4728,-2.7114 0.6683,-1.4362 2.0383,-1.8861 2.2305,-1.8861 -0.1922,0 -0.75,-2.6284 -0.6219,-2.6284 0.4643,-1.0659 2.7818,-1.6782 2.91,-1.6782 -0.243,-1.098 0.3587,-2.6412 0.4869,-2.6412 1.2289,-0.9 3.0295,-1.1987 3.1577,-1.1987 0.2222,-1.4807 1.9305,-2.4855 2.0587,-2.4855 -0.1282,0 1.6737,-0.5268 1.8018,-0.5268 1.2161,-1.1172 2.6514,-1.6071 2.8436,-1.6071 1.2986,-0.1532 2.6655,0.0507 2.8577,0.0507 -0.1922,0 2.7815,-1.0569 2.9738,-1.0569 1.6298,0.2362 2.7262,0.8634 2.8544,0.8634 0.9867,-0.2682 1.7105,-0.4721 3.1065,-0.2743 -0.1282,0 2.233,1.5193 2.233,1.5193l2.4096 0.4357c0.9055,0.631 1.728,1.3448 2.2956,2.4286l2.254 0.5323c0.9259,0.8419 1.3167,1.6394 1.6311,2.9281l1.74 0.9358c0.7125,0.934 1.1573,2.0017 1.2393,3.3184 0.855,0.477 1.5763,0.9862 1.9918,1.8142 0.2957,0.8664 0.3494,1.8283 0.1037,2.8668 0.3711,1.1805 0.7425,2.3609 1.1139,3.5414 -0.1875,0.9862 -0.5533,1.6727 -1.4668,2.3781 -1.4767,0.4027 -2.66,0.6136 -4.5569,0.5056l-2.4352 0.8462 -2.9926 -0.6454c-0.9408,0.5374 -1.9515,0.9726 -3.0515,1.076l-2.3778 -0.91c-1.428,1.2254 -2.1806,1.5365 -3.5177,1.7343 -0.931,4.5574 -0.1065,10.4627 0.1228,11.8799l3.5515 1.0909z"
       id="path572" />
    <path
       class="fil4"
       d="M117.462 200.578l7.3222 2.8033 0.878 1.4166c0,0.3663 -0.4524,1.4161 -1.2085,1.7642 -0.389,0.1716 -3.0335,0.2344 -3.0335,0.1063 0,0.1281 -1.8435,-0.8356 -1.8435,-0.9638 0,0.1282 -5.5111,-3.0759 -5.5111,-3.0759l3.3964 -2.0507z"
       id="path573" />
    <path
       class="fil4"
       d="M105.176 188.268l8.596 -0.7874 -8.9977 5.728c-0.1282,0.1282 6.3441,3.909 6.3441,3.7808 0,0.1282 -3.5641,2.1675 -3.5641,1.9752 0,0.1923 -4.98,-3.0441 -6.3567,-4.0222 -0.1923,0.1922 0.0176,-4.2585 0.0176,-4.2585l3.9608 -2.4159z"
       id="path574" />
    <path
       class="fil4"
       d="M97.3388 196.551l0.0881 -8.289 -7.294 -0.3706c-0.1282,0 6.7387,4.7887 6.8669,4.7887 -0.1282,0 -8.8731,4.2087 -8.6809,4.2087 -0.1922,0 3.7773,2.0211 3.7773,2.0211 0,-0.064 5.3708,-2.6793 5.2426,-2.3589z"
       id="path575" />
    <path
       class="fil4"
       d="M81.7394 199.838l-10.3523 3.9438 -1.9214 0.8326c-0.1282,0.1922 -1.0917,2.2161 -0.9635,2.0239 -0.1282,0.1922 1.7325,1.9855 1.9247,1.8574 -0.1922,0.1281 2.9468,-0.0682 3.0749,-0.2604 2.0315,-0.8089 14.6403,-6.0853 14.9947,-6.4067 0,0.1922 -2.7225,-1.541 -2.7225,-1.7332 0,0.1922 -1.6969,1.7332 -1.6969,1.7332l-2.3377 -1.9906z"
       id="path576" />
    <path
       class="fil4"
       d="M145.008 157.269l3.9413 -6.4433 5.2249 -10.1646 3.0588 -6.938 2.9009 -7.6727 -3.1968 -8.9714 -3.3504 -8.1417 -2.2626 4.1292 -1.9421 6.0023 -0.0149 -6.0729 0.8166 -8.1495 1.7368 -3.2538 1.8059 -1.0501 1.2193 0.6688 2.4826 5.9349 4.3248 13.7514 2.3097 -8.3044 1.954 -9.1466 1.3412 -10.3984 0.557 -8.5229 0.1479 -7.0609 -10.6132 -16.265 -2.1543 5.1372 -3.1645 3.9183 1.4098 -6.337 0.111 -4.5425 0.1128 -2.6418c0.7301,-2.231 2.4187,-2.6672 3.7645,-1.6419l10.2993 13.2208c-0.2637,-4.1282 -0.6381,-8.3306 -1.0867,-12.496 -2.6972,-3.4046 -5.3942,-6.6244 -8.3135,-9.8812 2.2898,1.1076 4.32,3.0792 6.4254,4.844 -1.0657,-3.8437 -2.7601,-7.2801 -4.6028,-10.8647 2.1934,2.4654 3.9054,4.8198 5.7661,7.4701l-0.0025 -10.6767 2.3539 11.0945 3.6082 -7.7138c-0.5217,2.8315 -1.3026,5.5888 -1.5649,8.4939 1.4532,-2.3953 3.0547,-4.1986 4.9151,-6.113 -2.1694,4.1557 -4.2647,8.0153 -5.509,12.578l1.4587 14.3178 0.2172 14.5191 -0.8257 15.1874 -2.7159 15.3527 -4.9172 16.6911c-2.2345,5.2734 -4.4688,10.3992 -7.2584,15.5989 2.37,-0.5487 4.7403,-1.0974 7.1106,-1.6462 2.8332,-0.2248 5.5557,-0.4125 8.5002,-0.1191l-3.4466 3.0462 -4.2107 0.4837 -7.4976 1.602 -3.0732 1.2743 -7.2231 10.1548 -0.9605 0.3693c0,0 0.0326,-4.4184 0.0326,-4.6106z"
       id="path577" />
    <path
       class="fil0"
       d="M149.375 39.9246l2.1147 0 0.1282 -1.7943 -2.8196 -2.2429c-0.1923,0 -14.9311,-5.3829 -14.7389,-5.3829 -0.1922,0 -10.5095,-3.0118 -10.3813,-3.0118 -0.1282,0 -11.8552,-2.4351 -11.727,-2.4351 -0.1282,0 -10.7017,-1.1535 -10.5095,-1.1535 -0.1922,0 -5.8955,0.2563 -5.7033,0.2563 -0.1922,0 -14.6107,1.6662 -14.4825,1.6662 -0.1282,0 -15.3156,3.5885 -15.1233,3.5885 -0.1923,0 -13.3932,5.1266 -13.265,5.1266 -0.1282,0 -6.2801,3.0119 -6.1519,3.0119 -0.1282,0 -0.769,1.602 -0.5767,1.602 -0.1923,0 0.4485,0.769 0.5767,0.769 -0.1282,0 1.4739,0 1.6661,0 -0.1922,0 0.2564,0.769 0.4486,0.5767 -0.1922,0.1923 2.1147,1.6662 2.2429,1.538 -0.1282,0.1282 -0.769,1.4739 -0.5768,1.3457 -0.1922,0.1282 0.7049,1.6662 0.8972,1.4739 -0.1923,0.1923 1.7943,0.1923 1.9224,0 -0.1281,0.1923 7.4976,-3.2682 7.6899,-3.4604 -0.1923,0.1922 13.2009,-4.2935 13.3291,-4.2935 -0.1282,0 13.8417,-2.8837 14.0339,-2.8837 -0.1922,0 8.9715,-0.5767 9.1637,-0.5767 -0.1922,0 12.432,0.7049 12.6242,0.7049 -0.1922,0 9.4841,1.5379 9.6123,1.5379 -0.1282,0 16.5332,4.9344 16.6613,4.8062 -0.1281,0.1282 10.0609,4.4857 10.2532,4.3576 -0.1923,0.1281 1.3457,0.1281 1.4738,0 -0.1281,0.1281 0.6409,-1.2176 0.769,-1.3458 -0.1281,0.1282 -0.5767,-1.5379 -0.4485,-1.6661 -0.1282,0.1282 0.8971,-0.6408 0.8971,-0.6408l0 -1.4739z"
       id="path578" />
    <path
       class="fil5"
       d="M12.0474 127.781l6.5298 7.7451 8.8368 9.0804c0,0.1923 9.0552,7.6472 9.0552,7.5191 0,0.1281 9.8533,6.3597 9.8533,6.2316 0,0.1281 8.4472,4.3134 8.4472,4.1852 0,0.1282 -0.0545,-8.483 -0.0545,-8.6112 0,0.1282 7.0816,3.2682 7.0816,3.14 0,0.1282 10.0127,3.8076 10.0127,3.6154 0,0.1922 12.693,3.2535 15.9564,3.3491 0.7253,0.1222 12.8429,0.7907 12.8429,0.6626 0,0.1281 10.512,-0.3833 15.3797,-1.48 0,0.1923 11.12,-2.3506 11.5988,-2.6914 7.0223,-1.654 17.4508,-6.4408 17.4508,-6.5689 0,0.1281 0.0141,8.0559 0.0141,7.9277 0,0.1282 9.8144,-4.7105 9.8144,-4.8387 0,0.1282 9.9181,-6.1418 11.4903,-7.8182 0,0.1281 8.8434,-7.7343 8.8434,-7.9265 1.5995,-1.0844 12.7079,-14.2394 12.7079,-14.2394l0.5472 18.6123c0,0.1923 11.3178,2.4049 11.3178,2.2767 0,0.1282 -11.2093,12.2939 -14.7684,14.8178 -1.0351,1.2688 -11.5052,9.1088 -12.0868,9.3807 -2.3685,2.1783 -16.6701,9.7854 -17.0115,9.854 -3.7364,2.2714 -19.3772,7.6157 -19.3772,7.4876 0,0.1281 0.0542,-7.5173 0.0542,-7.6455 -7.2352,2.4424 -17.5456,4.8791 -17.5456,4.7509 -7.182,1.4315 -18.2369,1.9008 -18.2369,1.7085 0,0.1923 -12.1115,-0.4584 -12.1115,-0.5865 -6.2243,-0.4305 -16.0846,-2.9912 -16.0846,-3.1194 0,0.1282 -9.4089,-2.78 -9.4089,-2.9081 0,0.1281 0.1524,8.6074 0.1524,8.4151 0,0.1923 -10.2797,-3.3794 -10.2797,-3.5076 0,0.1282 -11.6321,-5.0844 -11.6321,-5.2766 0,0.1922 -10.7014,-5.8739 -10.7014,-6.0021 0,0.1282 -8.3905,-5.3672 -14.3214,-10.4786 0,0.1922 -10.6598,-9.1416 -16.4138,-16.2345 -0.1282,0.1282 11.5105,-2.3044 11.5105,-2.3044l0.5369 -18.5222z"
       id="path579" />
    <path
       class="fil2"
       d="M144.954 126.268l-34.7478 0.1337 -1.4953 -2.8524c-0.3792,-0.3414 -1.9122,-2.4283 -4.5991,-3.6318 -0.1281,0 -3.1592,-0.6771 -3.031,-0.6771 -1.6432,-0.3863 -2.8065,-0.3797 -4.5251,-0.0116 -0.1281,0 -3.8817,1.2334 -3.7536,1.2334 -0.1281,0 -3.4072,2.4485 -3.279,2.4485 -0.1282,0 -2.3806,3.69 -2.2525,3.5619 -0.1281,0.1281 -33.8539,0.0974 -33.7258,-0.0308 -0.1281,0.1282 0.3383,4.0306 0.4665,3.9024 -0.1282,0.1282 3.0626,6.0109 3.1907,5.8827 -0.1281,0.1282 8.2903,2.3839 8.4185,2.2558 -0.1282,0.1281 27.0426,0.9612 27.1708,0.833 -0.1282,0.1282 3.7806,2.0211 3.9087,1.893 -0.1281,0.1281 2.7152,5.4152 2.8433,5.287 -0.1281,0.1282 2.5399,-5.1294 2.668,-5.2575 -0.1281,0.1281 3.909,-3.0119 4.0372,-3.14 -0.1282,0.1281 6.6004,0 6.7286,-0.1282 -0.1282,0.1282 23.7744,0 23.9026,-0.1282 -0.1282,0.1282 3.909,-2.8196 4.0372,-2.9477 -0.1282,0.1281 3.3322,-4.4217 3.3322,-4.4217l0.7049 -4.2044z"
       id="path580" />
    <path
       class="fil4"
       d="M100.096 52.8692l-0.2487 -3.0195 -2.0655 -3.2459c-0.1282,0 -1.9152,3.2535 -1.787,3.2535 -0.1282,0 -0.2639,2.8802 -0.1358,2.8802 -0.1281,0 -2.507,-1.1162 -2.3788,-1.1162 -0.1282,0 -2.058,-0.2565 -1.9298,-0.2565 -0.1282,0 -2.3029,1.297 -2.1747,1.297 -0.1282,0 -1.6886,3.412 -1.5605,3.2838 -0.1281,0.1282 2.1483,-1.1913 2.2124,-1.3195 0.5762,-0.136 1.9156,-0.385 2.699,-0.3471 0.2409,0.1433 2.4848,1.8801 3.08,2.8837 -0.1282,0.1281 -1.157,2.9932 -1.0289,2.865 -0.1281,0.1282 0.8374,3.6252 0.9655,3.497 -0.1281,0.1282 -1.7254,0 -1.5972,-0.1282 -0.1282,0.1282 -2.5502,-2.1326 -2.5729,-2.2607 0.0227,0.1281 0.49,3.0118 0.6181,2.8836 -0.1281,0.1282 1.2865,1.7764 1.4146,1.6483 -0.1281,0.1281 2.7182,0.3522 2.6453,0.2742 0.1234,0.078 0.7919,1.5269 0.9201,1.3987 -0.1282,0.1282 1.8019,0.0981 1.93,-0.03 -0.1281,0.1281 0.5354,-1.2484 0.6636,-1.3765 -0.1282,0.1281 2.2047,-0.0452 2.2047,-0.1733 0,0.1281 1.7265,-0.9951 1.7265,-1.1232 0,0.1281 0.7538,-3.4791 0.7538,-3.6073 0,0.1282 -2.3069,2.2956 -2.3069,2.1674 0,0.1282 -1.7792,0.4224 -1.7792,0.2942 0,0.1282 0.7839,-1.9641 0.7839,-2.0923 0,0.1282 -0.0903,-2.1863 -0.0903,-2.3145 0,0.1282 -0.7312,-1.9149 -0.7312,-1.9789 0,0.064 1.7792,-2.0734 1.7792,-2.2015 0,0.1281 1.8932,-0.626 2.5935,-0.5427 0.2712,0.0151 1.9878,0.6022 3.4716,1.4549 0,0.1282 -0.8972,-2.4351 -0.8972,-2.5632 0,0.1281 -1.538,-1.2176 -1.538,-1.2176l-1.602 -0.6408 -2.1788 0.3845c0,0 -1.8584,1.0253 -1.8584,1.0894z"
       id="path581" />
    <path
       class="fil0"
       d="M73.6398 185.017l7.3599 1.5634 2.099 4.7698c0,0.1282 2.995,3.8245 2.995,3.6964 0,0.1281 5.2847,3.7891 5.2847,3.661 0,0.1281 5.9138,1.7834 5.9138,1.6552 0,0.1282 0.1016,-11.9881 0.1016,-12.1163 0,0.1282 3.851,0.0702 3.851,-0.058 0,0.1282 0.0048,12.4524 0.0048,12.3242 0,0.1282 3.909,-0.6348 3.909,-0.7629 0,0.1281 4.2827,-1.5814 4.2827,-1.7096 0,0.1282 4.4602,-3.2611 4.4602,-3.3892 0,0.1281 2.6589,-3.3008 2.6589,-3.4289 0,0.1281 2.0819,-4.4822 2.0819,-4.6104 0,0.1282 7.7867,-1.7494 7.7867,-1.7494l-1.3409 4.3926c0,0.1282 -2.5148,-0.3458 -2.5148,-0.474 0,0.1282 -1.4898,3.3699 -1.4898,3.2417 0,0.1282 1.8258,1.8112 1.8258,1.683 0,0.1282 -2.5633,3.8169 -2.5633,3.6888 0,0.1281 -2.2284,-1.2597 -2.2284,-1.3879 0,0.1282 -2.3214,2.7591 -2.3214,2.6309 0,0.1282 1.26,2.1705 1.26,2.0423 0,0.1282 -2.9539,2.307 -2.9539,2.1788 0,0.1282 -1.9007,-1.7847 -1.9007,-1.9129 0,0.1282 -2.6153,1.6493 -2.6153,1.5211 0,0.1282 1.0241,2.4144 1.0241,2.2863 0,0.1281 -4.3031,1.688 -4.3031,1.5599 0,0.1281 -1.0205,-2.451 -1.0205,-2.5792 0,0.1282 -3.5826,0.7884 -3.5826,0.6602 0,0.1282 -0.1329,2.7846 -0.1329,2.6564 0,0.1282 -4.3685,0.0096 -4.3685,-0.1186 0,0.1282 0.0581,-2.3793 0.0581,-2.5075 0,0.1282 -4.1654,-0.9685 -4.1654,-1.0967 0,0.1282 -1.2236,2.6806 -1.2236,2.5524 0,0.1282 -4.0301,-1.6055 -4.0301,-1.7337 0,0.1282 0.9383,-1.9722 0.9383,-2.1003 0,0.1281 -3.0709,-1.8039 -3.0709,-1.9321 0,0.1282 -1.2768,1.4411 -1.5695,1.6056 -0.3459,-0.0845 -3.2778,-2.4654 -3.2778,-2.5935 0,0.1281 1.3177,-1.2718 1.3177,-1.4 -0.3191,-0.4572 -2.0892,-2.8257 -2.0892,-2.9538 0,0.1281 -1.9103,0.9998 -1.9103,0.8716 0,0.1282 -2.168,-3.1786 -2.168,-3.3068 0,0.1282 1.6276,-1.1365 1.6276,-1.2647 0,0.1282 -0.9383,-2.4992 -0.9383,-2.6274 0,0.1282 -2.0458,0.7907 -2.0458,0.7907l-1.0158 -4.2185z"
       id="path582" />
    <path
       class="fil0"
       d="M82.0795 163.086l7.4963 1.0881 3.0227 -1.7025 4.342 -1.128 0.0532 3.2998c0,0.1281 4.1313,0.1281 4.1313,0 0,0.1281 0.0169,-3.4751 0.0169,-3.4751l3.6322 0.5924 5.0552 2.2492c0,0.1281 7.6971,-1.0473 7.6971,-1.0473l-2.0869 -1.4461 1.4993 -1.7156 -3.834 -2.6433 -1.4414 1.9275 -3.0287 -1.7193 0.6408 -2.0229 -4.2355 -1.3566 -0.7833 2.3213 -3.1678 -0.5318 -0.0532 -1.9565 -4.5766 0.0219 -0.0048 2.2538 -3.7591 0.6892 -0.653 -1.8959 -3.2656 1.1582 0.6928 1.8753 -2.637 1.3881 -1.0906 -1.538 -3.1449 2.2586 1.1099 1.5538 -1.6273 1.5017z"
       id="path583" />
    <path
       class="fil0"
       d="M31.272 18.7135l3.4605 -1.9225 1.7302 2.0506c0,0.1282 3.3322,-1.1535 3.3322,-1.1535l-0.8971 -2.7555 4.2935 -2.3069 -0.1282 3.909 2.6274 -1.3458 2.1788 3.5246 5.1906 -2.8197 -1.0253 -3.0118 2.6915 -1.1535 -2.1788 -2.8837 5.5751 -1.5379 1.2816 2.9477 2.6274 -0.6408 -0.8331 -3.4604 5.1907 -1.3457 0.833 3.14 2.307 -0.5127 0.1282 -3.909 4.4216 -0.3845 -0.6408 3.14 3.5245 -0.7049 0.6408 3.7809 5.9597 -0.769 -0.6409 -4.0372 4.1013 -0.1281 -1.538 -3.2682 4.9343 0.0641 0.5127 2.6914 3.5245 0 0 -3.909 5.5751 0.2563 0 3.909 2.4352 -0.1281 1.3457 -3.3964 4.4857 0.3845 -0.8971 3.14 3.7808 0.2564 -0.2563 3.7808 5.9596 0.2563 0.3845 -3.5245 3.5245 0.3845 -0.769 -3.3323 5.1907 0.769 -0.2563 3.5245 3.0759 0.769 0.6408 -2.7555 5.0625 0.769 -0.3845 3.14 1.8584 0.8971 2.5633 -2.8196 4.1653 1.4098 -1.9866 2.307 3.2682 1.2176 -0.8971 3.5885 4.5498 2.3711 1.538 -3.3964 4.4216 1.4098 0.3845 -3.5886 4.2935 2.0507 -1.2816 3.14 2.4351 1.1535 1.7943 -2.307 4.2935 2.0506 -13.5854 19.0965c0,0.1281 -4.678,-1.538 -4.678,-1.6661 0,0.1281 -13.1368,-4.9344 -13.1368,-5.0625 0,0.1281 -9.7405,-2.6274 -9.7405,-2.7556 0,0.1282 -9.9968,-1.9224 -9.9968,-2.0506 0,0.1282 -11.7911,-0.833 -11.7911,-0.9612 0,0.0641 -9.2278,-0.1282 -9.2278,-0.2563 0,0.1281 -8.7792,1.0894 -8.7792,0.9612 0,0.1282 -8.8433,2.1788 -8.8433,2.0506 0,0.1282 -14.034,4.678 -14.034,4.5498 0,0.1282 -14.6107,5.9597 -14.6107,5.9597l-15.0593 -18.8401z"
       id="path584" />
    <polyline
       class="fil1 str0"
       points="151.122,37.4625 164.435,17.3036 160.525,15.3812 158.667,18.0726 156.552,17.1114 157.578,14.0995 153.284,12.0489 152.259,19.7388 138.481,31.3376 136.174,14.6763 142.134,7.7554 137.456,6.2815 135.79,8.9089 133.162,8.0758 133.739,5.1281 128.613,3.9746 127.844,6.9224 125.152,6.4097 125.152,3.0134 120.346,2.1803 121.692,10.8954 112.464,24.5449 105.287,8.6526 108.555,0.8346 103.877,0.8346 102.98,3.8464 99.968,3.8464 99.968,0.386 94.7132,0.386 94.7132,3.8464 90.9324,3.8464 90.2916,1.0268 85.6777,1.0268 88.6254,8.2681 83.3066,24.6731 73.0535,11.5363 74.0147,2.8211 69.4008,3.7183 69.7212,7.2428 67.3502,7.7554 66.4531,4.6154 61.1983,6.0893 62.0955,9.2293 59.6604,9.9342 57.9942,7.0505 52.6113,8.973 57.4816,14.6763 57.033,32.427 43.3835,21.5331 43.2554,12.8179 38.4492,15.0608 39.7309,17.4959 36.719,19.4184 35.0529,16.791 31.9128,18.7775 46.4595,37.4895 "
       id="polyline585" />
    <polyline
       class="fil1 str0"
       points="43.2872,16.1716 45.8827,14.9967 47.6129,18.1367 53.2522,15.9579 51.7783,12.6257 54.8272,11.5577 "
       id="polyline586" />
    <polyline
       class="fil1 str0"
       points="73.6567,5.9664 77.2829,5.3844 77.8597,9.1011 83.4348,8.3962 83.1144,4.6795 86.9964,4.3003 "
       id="polyline587" />
    <polyline
       class="fil1 str0"
       points="107.273,4.1027 111.246,4.295 110.798,8.0118 116.822,8.4603 117.334,4.8077 120.757,5.1921 "
       id="polyline588" />
    <polyline
       class="fil1 str0"
       points="140.147,9.9342 143.608,11.4722 142.006,14.8044 146.812,16.7269 148.734,13.3306 152.878,15.3703 "
       id="polyline589" />
    <path
       class="fil1 str0"
       d="M149.567 40.0528c1.6662,1.0894 3.2041,-1.7302 1.6021,-2.6274 -40.628,-17.6866 -66.1967,-17.4303 -104.197,-0.0641 -2.1788,1.3457 0.1923,3.9731 2.307,2.6915 33.8994,-17.4303 67.222,-16.4691 100.288,0z"
       id="path590" />
    <path
       class="fil1 str0"
       d="M148.991 39.7445c1.2287,1.7645 -0.3845,3.1279 -1.7302,2.4871 -31.8488,-15.1234 -63.8257,-16.2128 -95.5463,-0.2564 -2.0506,1.2817 -3.3747,-1.0659 -1.7726,-2.2835"
       id="path591" />
    <path
       class="fil1 str0"
       d="M51.6748 42.0113c-1.9688,1.6881 0.1035,4.1933 2.2823,2.8476 30.7593,-15.636 61.5187,-13.9699 92.4062,0.2563 2.3345,1.1545 3.383,-1.2894 1.5733,-2.7146"
       id="path592" />
    <line
       class="fil1 str0"
       x1="47.4848"
       y1="24.7372"
       x2="57.3264"
       y2="20.7108"
       id="line593" />
    <line
       class="fil1 str0"
       x1="76.1294"
       y1="15.5734"
       x2="86.6389"
       y2="14.484"
       id="line594" />
    <line
       class="fil1 str0"
       x1="107.722"
       y1="13.651"
       x2="119.043"
       y2="14.8044"
       id="line595" />
    <line
       class="fil1 str0"
       x1="136.596"
       y1="18.8578"
       x2="147.949"
       y2="23.3861"
       id="line596" />
    <line
       class="fil1 str0"
       x1="143.608"
       y1="27.1723"
       x2="137.456"
       y2="24.609"
       id="line597" />
    <line
       class="fil1 str0"
       x1="115.62"
       y1="19.8028"
       x2="110.13"
       y2="19.2902"
       id="line598" />
    <line
       class="fil1 str0"
       x1="85.1224"
       y1="19.0339"
       x2="79.5899"
       y2="19.6747"
       id="line599" />
    <line
       class="fil1 str0"
       x1="57.2252"
       y1="25.8266"
       x2="51.7142"
       y2="28.1335"
       id="line600" />
    <path
       class="fil6"
       d="M92.983 24.4168l2.6915 -11.1503 3.2681 0 2.8837 11.0221c-3.0118,-0.1923 -6.0237,-0.1282 -8.8433,0.1282z"
       id="path601" />
    <polygon
       class="fil6 str1"
       points="126.69,16.1502 129.638,16.7269 130.151,29.3937 120.362,26.8304 "
       id="polygon602" />
    <polygon
       class="fil6 str1"
       points="67.5425,16.791 64.2102,17.6881 64.2102,30.28 74.068,27.2843 "
       id="polygon603" />
    <polygon
       class="fil6 str1"
       points="39.6938,28.5233 49.4072,36.1438 46.3954,37.4895 "
       id="polygon604" />
    <polygon
       class="fil6 str1"
       points="147.004,35.3748 157.898,26.7237 151.105,37.1691 "
       id="polygon605" />
    <line
       class="fil1 str0"
       x1="54.8668"
       y1="44.4103"
       x2="144.544"
       y2="44.4103"
       id="line606" />
    <line
       class="fil1 str0"
       x1="53.3162"
       y1="69.5946"
       x2="144.542"
       y2="69.5946"
       id="line607" />
    <path
       class="fil6"
       d="M98.3018 84.7179c0.769,0 1.3458,0.5768 1.3458,1.2817 0,0.7049 -0.5768,1.3457 -1.3458,1.3457 -0.7049,0 -1.2816,-0.6408 -1.2816,-1.3457 0,-0.7049 0.5767,-1.2817 1.2816,-1.2817z"
       id="path608" />
    <path
       class="fil6"
       d="M103.621 85.0383c0.7049,0 1.2817,0.5768 1.2817,1.3458 0,0.7049 -0.5768,1.2816 -1.2817,1.2816 -0.7049,0 -1.3457,-0.5767 -1.3457,-1.2816 0,-0.769 0.6408,-1.3458 1.3457,-1.3458z"
       id="path609" />
    <path
       class="fil6"
       d="M93.4957 85.0383c-0.769,0 -1.3457,0.5768 -1.3457,1.3458 0,0.7049 0.5767,1.2816 1.3457,1.2816 0.7049,0 1.2816,-0.5767 1.2816,-1.2816 0,-0.769 -0.5767,-1.3458 -1.2816,-1.3458z"
       id="path610" />
    <path
       class="fil6"
       d="M103.621 88.6269c0.7049,0 1.2817,0.5768 1.2817,1.3458 0,0.7049 -0.5768,1.2816 -1.2817,1.2816 -0.7049,0 -1.3457,-0.5767 -1.3457,-1.2816 0,-0.769 0.6408,-1.3458 1.3457,-1.3458z"
       id="path611" />
    <path
       class="fil6"
       d="M93.4957 88.6269c-0.769,0 -1.3457,0.5768 -1.3457,1.3458 0,0.7049 0.5767,1.2816 1.3457,1.2816 0.7049,0 1.2816,-0.5767 1.2816,-1.2816 0,-0.769 -0.5767,-1.3458 -1.2816,-1.3458z"
       id="path612" />
    <path
       class="fil6"
       d="M103.621 92.2155c0.7049,0 1.2817,0.5768 1.2817,1.3458 0,0.7049 -0.5768,1.2816 -1.2817,1.2816 -0.7049,0 -1.3457,-0.5767 -1.3457,-1.2816 0,-0.769 0.6408,-1.3458 1.3457,-1.3458z"
       id="path613" />
    <path
       class="fil6"
       d="M93.4957 92.2155c-0.769,0 -1.3457,0.5768 -1.3457,1.3458 0,0.7049 0.5767,1.2816 1.3457,1.2816 0.7049,0 1.2816,-0.5767 1.2816,-1.2816 0,-0.769 -0.5767,-1.3458 -1.2816,-1.3458z"
       id="path614" />
    <path
       class="fil6"
       d="M103.621 96.2527c0.7049,0 1.2817,0.5767 1.2817,1.3457 0,0.7049 -0.5768,1.2817 -1.2817,1.2817 -0.7049,0 -1.3457,-0.5768 -1.3457,-1.2817 0,-0.769 0.6408,-1.3457 1.3457,-1.3457z"
       id="path615" />
    <path
       class="fil6"
       d="M93.4957 96.2527c-0.769,0 -1.3457,0.5767 -1.3457,1.3457 0,0.7049 0.5767,1.2817 1.3457,1.2817 0.7049,0 1.2816,-0.5768 1.2816,-1.2817 0,-0.769 -0.5767,-1.3457 -1.2816,-1.3457z"
       id="path616" />
    <path
       class="fil6"
       d="M103.621 100.482c0.7049,0 1.2817,0.5768 1.2817,1.2817 0,0.7049 -0.5768,1.2816 -1.2817,1.2816 -0.7049,0 -1.3457,-0.5767 -1.3457,-1.2816 0,-0.7049 0.6408,-1.2817 1.3457,-1.2817z"
       id="path617" />
    <path
       class="fil6"
       d="M93.6238 100.482c-0.7049,0 -1.2816,0.5768 -1.2816,1.2817 0,0.7049 0.5767,1.2816 1.2816,1.2816 0.7049,0 1.2817,-0.5767 1.2817,-1.2816 0,-0.7049 -0.5768,-1.2817 -1.2817,-1.2817z"
       id="path618" />
    <path
       class="fil6"
       d="M107.786 98.6878c0.7049,0 1.3457,0.5768 1.3457,1.2817 0,0.7049 -0.6408,1.2816 -1.3457,1.2816 -0.7049,0 -1.2817,-0.5767 -1.2817,-1.2816 0,-0.7049 0.5768,-1.2817 1.2817,-1.2817z"
       id="path619" />
    <path
       class="fil6"
       d="M108.042 94.6507c0.769,0 1.3457,0.5767 1.3457,1.2816 0,0.7049 -0.5767,1.2816 -1.3457,1.2816 -0.7049,0 -1.2816,-0.5767 -1.2816,-1.2816 0,-0.7049 0.5767,-1.2816 1.2816,-1.2816z"
       id="path620" />
    <path
       class="fil6"
       d="M107.978 91.1902c0.7049,0 1.2817,0.5768 1.2817,1.2817 0,0.7049 -0.5768,1.3457 -1.2817,1.3457 -0.769,0 -1.3457,-0.6408 -1.3457,-1.3457 0,-0.7049 0.5767,-1.2817 1.3457,-1.2817z"
       id="path621" />
    <path
       class="fil6"
       d="M108.235 87.5375c0.7049,0 1.3458,0.5768 1.3458,1.3458 0,0.7049 -0.6409,1.2816 -1.3458,1.2816 -0.7049,0 -1.2816,-0.5767 -1.2816,-1.2816 0,-0.769 0.5767,-1.3458 1.2816,-1.3458z"
       id="path622" />
    <path
       class="fil6"
       d="M112.144 88.6269c0.7049,0 1.2817,0.5768 1.2817,1.3458 0,0.7049 -0.5768,1.2816 -1.2817,1.2816 -0.7049,0 -1.2816,-0.5767 -1.2816,-1.2816 0,-0.769 0.5767,-1.3458 1.2816,-1.3458z"
       id="path623" />
    <path
       class="fil6"
       d="M84.8446 88.8833c0.7049,0 1.2816,0.5767 1.2816,1.3457 0,0.7049 -0.5767,1.2816 -1.2816,1.2816 -0.7049,0 -1.2816,-0.5767 -1.2816,-1.2816 0,-0.769 0.5767,-1.3457 1.2816,-1.3457z"
       id="path624" />
    <path
       class="fil6"
       d="M84.5242 92.4078c0.7049,0 1.2816,0.5767 1.2816,1.2816 0,0.7049 -0.5767,1.2817 -1.2816,1.2817 -0.769,0 -1.3457,-0.5768 -1.3457,-1.2817 0,-0.7049 0.5767,-1.2816 1.3457,-1.2816z"
       id="path625" />
    <path
       class="fil6"
       d="M84.9728 96.2527c0.7049,0 1.2816,0.5767 1.2816,1.3457 0,0.7049 -0.5767,1.2817 -1.2816,1.2817 -0.769,0 -1.3458,-0.5768 -1.3458,-1.2817 0,-0.769 0.5768,-1.3457 1.3458,-1.3457z"
       id="path626" />
    <path
       class="fil6"
       d="M84.9728 100.61c0.7049,0 1.2816,0.5767 1.2816,1.2816 0,0.7049 -0.5767,1.3457 -1.2816,1.3457 -0.769,0 -1.3458,-0.6408 -1.3458,-1.3457 0,-0.7049 0.5768,-1.2816 1.3458,-1.2816z"
       id="path627" />
    <path
       class="fil6"
       d="M89.1381 99.7131c0.7049,0 1.2816,0.5768 1.2816,1.2817 0,0.769 -0.5767,1.3457 -1.2816,1.3457 -0.7049,0 -1.2816,-0.5767 -1.2816,-1.3457 0,-0.7049 0.5767,-1.2817 1.2816,-1.2817z"
       id="path628" />
    <path
       class="fil6"
       d="M89.1381 95.2274c0.7049,0 1.2816,0.5767 1.2816,1.2816 0,0.7049 -0.5767,1.3458 -1.2816,1.3458 -0.7049,0 -1.2816,-0.6409 -1.2816,-1.3458 0,-0.7049 0.5767,-1.2816 1.2816,-1.2816z"
       id="path629" />
    <path
       class="fil6"
       d="M89.4585 91.1902c0.769,0 1.3457,0.5768 1.3457,1.2817 0,0.7049 -0.5767,1.3457 -1.3457,1.3457 -0.7049,0 -1.2816,-0.6408 -1.2816,-1.3457 0,-0.7049 0.5767,-1.2817 1.2816,-1.2817z"
       id="path630" />
    <path
       class="fil6"
       d="M89.7148 87.4735c0.769,0 1.3458,0.5767 1.3458,1.2816 0,0.7049 -0.5768,1.2816 -1.3458,1.2816 -0.7049,0 -1.2816,-0.5767 -1.2816,-1.2816 0,-0.7049 0.5767,-1.2816 1.2816,-1.2816z"
       id="path631" />
    <path
       class="fil6"
       d="M112.144 92.4078c0.7049,0 1.2817,0.5767 1.2817,1.2816 0,0.7049 -0.5768,1.2817 -1.2817,1.2817 -0.7049,0 -1.2816,-0.5768 -1.2816,-1.2817 0,-0.7049 0.5767,-1.2816 1.2816,-1.2816z"
       id="path632" />
    <path
       class="fil6"
       d="M112.144 95.8041c0.7049,0 1.2817,0.5768 1.2817,1.3458 0,0.7049 -0.5768,1.2816 -1.2817,1.2816 -0.7049,0 -1.2816,-0.5767 -1.2816,-1.2816 0,-0.769 0.5767,-1.3458 1.2816,-1.3458z"
       id="path633" />
    <path
       class="fil6"
       d="M112.144 99.8413c0.7049,0 1.2817,0.5767 1.2817,1.3457 0,0.7049 -0.5768,1.2817 -1.2817,1.2817 -0.7049,0 -1.2816,-0.5768 -1.2816,-1.2817 0,-0.769 0.5767,-1.3457 1.2816,-1.3457z"
       id="path634" />
    <path
       class="fil6"
       d="M116.181 98.4956c0.7049,0 1.2817,0.5767 1.2817,1.3457 0,0.7049 -0.5768,1.2816 -1.2817,1.2816 -0.7049,0 -1.2816,-0.5767 -1.2816,-1.2816 0,-0.769 0.5767,-1.3457 1.2816,-1.3457z"
       id="path635" />
    <path
       class="fil6"
       d="M81.4483 98.4956c-0.7049,0 -1.2817,0.5767 -1.2817,1.3457 0,0.7049 0.5768,1.2816 1.2817,1.2816 0.7049,0 1.2816,-0.5767 1.2816,-1.2816 0,-0.769 -0.5767,-1.3457 -1.2816,-1.3457z"
       id="path636" />
    <path
       class="fil6"
       d="M116.309 95.0992c0.769,0 1.3457,0.5768 1.3457,1.2817 0,0.7049 -0.5767,1.2816 -1.3457,1.2816 -0.7049,0 -1.2817,-0.5767 -1.2817,-1.2816 0,-0.7049 0.5768,-1.2817 1.2817,-1.2817z"
       id="path637" />
    <path
       class="fil6"
       d="M81.3201 95.0992c-0.769,0 -1.3457,0.5768 -1.3457,1.2817 0,0.7049 0.5767,1.2816 1.3457,1.2816 0.7049,0 1.2816,-0.5767 1.2816,-1.2816 0,-0.7049 -0.5767,-1.2817 -1.2816,-1.2817z"
       id="path638" />
    <path
       class="fil6"
       d="M98.3018 88.4347c0.769,0 1.3458,0.5767 1.3458,1.3457 0,0.7049 -0.5768,1.2817 -1.3458,1.2817 -0.7049,0 -1.2816,-0.5768 -1.2816,-1.2817 0,-0.769 0.5767,-1.3457 1.2816,-1.3457z"
       id="path639" />
    <path
       class="fil6"
       d="M98.3018 92.0874c0.769,0 1.3458,0.5767 1.3458,1.2816 0,0.7049 -0.5768,1.3457 -1.3458,1.3457 -0.7049,0 -1.2816,-0.6408 -1.2816,-1.3457 0,-0.7049 0.5767,-1.2816 1.2816,-1.2816z"
       id="path640" />
    <path
       class="fil6"
       d="M98.3018 95.676c0.769,0 1.3458,0.5767 1.3458,1.2816 0,0.7049 -0.5768,1.3457 -1.3458,1.3457 -0.7049,0 -1.2816,-0.6408 -1.2816,-1.3457 0,-0.7049 0.5767,-1.2816 1.2816,-1.2816z"
       id="path641" />
    <path
       class="fil6"
       d="M98.3018 100.034c0.769,0 1.3458,0.5768 1.3458,1.2817 0,0.7049 -0.5768,1.2816 -1.3458,1.2816 -0.7049,0 -1.2816,-0.5767 -1.2816,-1.2816 0,-0.7049 0.5767,-1.2817 1.2816,-1.2817z"
       id="path642" />
    <path
       class="fil1 str0"
       d="M97.7892 56.8423c-3.076,-4.2295 -2.3711,-7.3054 0,-10.3813 2.8196,3.5886 3.3963,6.1518 0,10.3813z"
       id="path643" />
    <line
       class="fil1 str2"
       x1="97.7892"
       y1="46.6932"
       x2="97.7892"
       y2="53.6382"
       id="line644" />
    <path
       class="fil1 str2"
       d="M97.7892 57.6112c-1.0253,2.1788 -1.0253,4.4217 0,6.7287 1.2175,-2.1788 1.1534,-4.4858 0,-6.7287z"
       id="path645" />
    <path
       class="fil1 str0"
       d="M95.8667 52.8051c-4.1653,-2.7555 -6.7927,-1.4098 -8.2025,3.3963 3.5245,-2.9477 6.1519,-2.3069 8.0743,0.9613 -1.1534,2.0506 -1.2816,4.1653 0,6.3441 -1.3457,0.3204 -2.6914,-0.5127 -4.1012,-2.371 0.3845,2.1787 -0.1922,5.0624 4.7421,4.8061 0.064,1.1535 0.6408,1.538 1.602,1.6021 1.0253,-0.0641 1.6021,-0.4486 1.6662,-1.6021 4.9343,0.2563 4.2934,-2.5633 4.742,-4.8061 -1.4739,1.8583 -2.7555,2.6914 -4.1012,2.371 1.2816,-2.1788 1.1534,-4.2935 0,-6.3441 1.9224,-3.2682 4.5498,-3.909 8.0743,-0.9613 -1.4098,-4.8061 -4.0372,-6.1518 -8.2025,-3.3963"
       id="path646" />
    <path
       class="fil1 str0"
       d="M54.7901 153.991c29.7982,14.4825 59.8526,14.034 90.2275,0l0 24.4153c-30.0544,13.2649 -60.0448,13.2009 -90.2275,0l0 -24.4153z"
       id="path647" />
    <path
       class="fil1 str0"
       d="M145.131 161.853c18.0071,-7.7539 31.4792,-20.3584 42.8217,-34.9691l0.4486 18.8401 11.4706 2.2429c-18.0711,20.7626 -39.2822,34.348 -63.3771,41.5892l0 -7.6898"
       id="path648" />
    <path
       class="fil1 str0"
       d="M54.777 162.507c-18.0711,-7.7539 -31.5152,-20.4358 -42.7937,-35.0466l-0.5126 18.8402 -11.4707 2.3069c18.0711,20.6985 39.2823,34.348 63.3771,41.5252l-0.1862 -8.1155"
       id="path649" />
    <polygon
       class="fil6"
       points="54.6229,178.549 63.2866,190.203 63.4412,181.802 "
       id="polygon650" />
    <polygon
       class="fil6"
       points="145.233,178.53 136.707,189.6 136.687,181.674 "
       id="polygon651" />
    <path
       class="fil1 str0"
       d="M117.313 163.005l-1.8367 -1.5163 1.538 -1.6661c-1.2817,-1.0253 -2.6274,-1.9866 -3.9731,-2.6915l-1.4098 1.9866 -2.9478 -1.7302 0.6408 -2.0507c-1.3457,-0.4485 -2.7555,-0.8971 -4.3575,-1.3457l-0.7049 2.2429 -3.2041 -0.5127 0 -1.9224c-1.1535,0 -3.5246,-0.0641 -4.614,0.064l0 2.2429 -3.7167 0.6408 -0.7049 -1.9865c-1.1535,0.3845 -2.1788,0.8331 -3.2041,1.2816l0.6408 1.9225 -2.6274 1.3457 -1.0893 -1.602c-1.1535,0.7049 -2.1788,1.4739 -3.1401,2.2428l1.1535 1.6021 -1.793 1.5211"
       id="path652" />
    <path
       class="fil1 str0"
       d="M73.6943 185.006c0.1923,1.2816 0.5768,2.9478 1.0253,4.2294l1.9866 -0.769 0.9612 2.6274 -1.602 1.2176c0.5767,1.1534 1.3457,2.371 2.1788,3.4604l1.8583 -1.0253 2.1147 3.0118 -1.2816 1.3458c0.9612,0.9612 1.9865,1.8583 3.14,2.6914l1.6662 -1.6661 3.0759 1.9865 -0.9612 2.0506c1.2816,0.6409 2.5632,1.2176 3.973,1.6662l1.2817 -2.4351 4.1012 1.0253 0 2.5632c0.8972,0.0641 1.7943,0.1282 2.6915,0.1282 0.5767,0 1.1535,0 1.7302,-0.0641l0.0641 -2.6914 3.5886 -0.5768 0.9612 2.5633c2.0506,-0.6408 3.2041,-1.0253 4.3576,-1.5379l-1.0253 -2.307 2.6273 -1.538 1.8584 1.9225c1.2176,-0.7049 2.2429,-1.4098 3.0759,-2.1788l-1.4098 -2.1147 2.307 -2.5633 2.3069 1.4098c0.9613,-1.0894 1.8584,-2.4992 2.5633,-3.6527l-1.8584 -1.7302 1.538 -3.2682 2.4992 0.5127c0.5768,-1.3457 0.9877,-2.8885 1.18,-4.2342"
       id="path653" />
    <path
       class="fil1 str0"
       d="M109.837 164.052c-2.5633,-1.6021 -5.5751,-2.6274 -8.7152,-2.8196l0 3.4059"
       id="path654" />
    <path
       class="fil1 str0"
       d="M118.68 186.48c-2.3069,7.6898 -9.2278,13.3931 -17.4944,14.034l0 -12.1055"
       id="path655" />
    <path
       class="fil1 str0"
       d="M80.92 186.577c2.2428,7.1772 8.7308,12.848 16.4206,13.8092l0.0641 -12.0474"
       id="path656" />
    <path
       class="fil1 str0"
       d="M89.3195 164.191c2.2429,-1.4098 4.817,-2.446 7.6366,-2.8305l0 3.2887"
       id="path657" />
    <path
       class="fil1 str0"
       d="M145.047 157.192c21.4034,-34.3479 25.6033,-68.1169 21.7584,-101.376l3.0119 -0.833c5.511,43.5117 -2.4177,78.9142 -23.8852,106.534"
       id="path658" />
    <line
       class="fil1 str0"
       x1="167.636"
       y1="63.8913"
       x2="170.707"
       y2="63.699"
       id="line659" />
    <line
       class="fil1 str0"
       x1="168.023"
       y1="82.3469"
       x2="171.533"
       y2="82.411"
       id="line660" />
    <line
       class="fil1 str0"
       x1="167.767"
       y1="88.1784"
       x2="171.163"
       y2="88.2424"
       id="line661" />
    <line
       class="fil1 str0"
       x1="167.318"
       y1="94.6507"
       x2="170.65"
       y2="94.8429"
       id="line662" />
    <line
       class="fil1 str0"
       x1="164.435"
       y1="111.568"
       x2="168.356"
       y2="112.283"
       id="line663" />
    <line
       class="fil1 str0"
       x1="157.706"
       y1="132.844"
       x2="161.381"
       y2="135.089"
       id="line664" />
    <line
       class="fil1 str0"
       x1="153.925"
       y1="141.43"
       x2="157.462"
       y2="143.511"
       id="line665" />
    <line
       class="fil1 str0"
       x1="150.889"
       y1="154.698"
       x2="148.074"
       y2="152.369"
       id="line666" />
    <path
       class="fil1 str0"
       d="M166.788 55.8169c-3.076,-4.2294 -6.1988,-7.4976 -9.3389,-10.6376 3.2041,2.2429 6.4082,3.5886 10.6377,10.125"
       id="path667" />
    <path
       class="fil1 str0"
       d="M167.575 54.5994c2.1788,-5.9596 5.1266,-9.6123 8.3307,-12.7523 -2.3711,3.973 -4.7519,8.3604 -6.1618,13.1025"
       id="path668" />
    <path
       class="fil1 str0"
       d="M166.421 52.8051c1.538,-4.678 3.6527,-9.0997 6.0878,-13.6495 -0.9612,2.8837 -2.0506,6.7854 -2.1147,9.4768"
       id="path669" />
    <path
       class="fil1 str0"
       d="M164.883 51.0108c-1.0894,-4.0372 -2.8837,-7.7539 -4.9344,-11.4066 2.9478,3.2041 5.4001,6.4155 7.4507,10.4527"
       id="path670" />
    <polyline
       class="fil1 str0"
       points="166.101,47.7426 165.908,35.3748 168.306,47.7769 "
       id="polyline671" />
    <path
       class="fil4 str0"
       d="M146.235 123.808c4.0372,6.7286 5.7033,15.2515 6.3441,25.3124l-3.7808 1.602c-0.1923,-7.1772 -1.2817,-14.2262 -3.7168,-21.4034l1.1535 -5.511z"
       id="path672" />
    <path
       class="fil6"
       d="M99.5194 147.518c-1.9225,-4.8061 -4.2294,-6.9208 -10.2531,-6.8568l-21.4675 -0.064c-12.4319,0 -14.4826,-8.1385 -14.4826,-14.9952 0,2.7555 1.0254,11.9833 14.6107,11.9192l22.3006 0c5.447,-1.2816 9.2919,6.1519 9.2919,8.3307 1.2816,-5.2547 4.1012,-8.3948 8.9074,-8.3307l25.3765 0c5.3829,0 10.4453,-6.4723 10.5094,-12.8164l0 -80.1666 0.8331 0 1.4739 0.7049 0 79.5258c0.0641,6.6005 -3.909,15.2515 -14.034,15.1874l-23.9667 0c-4.5498,-0.064 -7.5616,4.0372 -9.0996,7.5617z"
       id="path673" />
    <path
       class="fil4 str0"
       d="M160.718 125.666c6.1519,-6.8568 12.4319,-13.5854 19.8654,-18.9683 1.8584,-0.8972 3.1401,-0.6408 3.0119,2.1147 0.0641,5.3188 -0.5127,10.3172 -1.3457,15.1233 -0.3845,-4.0371 -0.8331,-7.9461 -1.6021,-11.2784l-17.0458 17.0458 -2.8837 -4.0371z"
       id="path674" />
    <line
       class="fil1 str0"
       x1="179.807"
       y1="113.491"
       x2="182.114"
       y2="111.312"
       id="line675" />
    <path
       class="fil4 str0"
       d="M150.913 94.9711c0.5767,-5.7033 0.8971,-11.9834 4.6139,-16.7254 3.909,-3.3964 9.3731,14.2262 14.3715,24.6075l-3.7808 0.3204c-2.6915,-7.2413 -8.1556,-20.9549 -9.6295,-19.6732 -2.6914,1.7943 -3.9731,7.1131 -5.5751,11.4707z"
       id="path676" />
    <path
       class="fil4 str0"
       d="M171.163 93.3049c3.8449,-4.4857 7.6258,-8.9715 11.4707,-13.4572 1.9224,-0.5127 3.5886,-0.5127 3.3963,2.8837l-1.9865 17.6866 -2.1788 -14.6747 -11.5348 15.8282 0.8331 -8.2666z"
       id="path677" />
    <line
       class="fil1 str0"
       x1="181.416"
       y1="86.3841"
       x2="183.595"
       y2="83.2441"
       id="line678" />
    <path
       class="fil1 str0"
       d="M161.78 120.843c-3.0118,-6.9208 -5.484,-22.9882 -8.9445,-19.9123 -4.9343,3.909 -2.5632,13.0727 -3.7808,20.0577 1.3457,-5.5111 2.8196,-10.1891 4.6139,-11.9834 2.2429,5.1266 4.2935,11.0221 6.4082,17.3022"
       id="path679" />
    <line
       class="fil1 str0"
       x1="153.605"
       y1="108.813"
       x2="152.451"
       y2="106.762"
       id="line680" />
    <path
       class="fil4 str0"
       d="M168.215 75.5542c3.7168,-7.3694 7.4976,-14.7389 11.3425,-22.1724 1.7303,-1.2816 3.5245,-2.9477 5.447,1.0894 0.1923,7.049 -0.5767,12.496 -1.9865,16.9177 -0.0641,-5.0625 -0.2564,-10.125 -2.4352,-13.7136l-8.9714 19.7373 -3.3964 -1.8584z"
       id="path681" />
    <line
       class="fil1 str0"
       x1="180.199"
       y1="58.4886"
       x2="182.057"
       y2="54.131"
       id="line682" />
    <path
       class="fil1 str0"
       d="M167.845 68.4358c-3.5245,-4.5498 -6.6789,-8.6458 -10.2034,-13.2597 -1.9866,-1.602 -3.2041,-0.4485 -4.0372,1.9866 0.1923,5.511 -0.3204,9.7404 -1.4739,13.0086 2.1788,-2.0506 4.0372,-4.8702 5.1907,-9.2278l10.7829 16.6414"
       id="path683" />
    <line
       class="fil1 str0"
       x1="157.274"
       y1="60.8559"
       x2="155.865"
       y2="58.8693"
       id="line684" />
    <path
       class="fil1 str0"
       d="M155.783 146.685c5.5111,-1.7943 10.6376,-2.1788 15.636,-1.7943"
       id="path685" />
    <path
       class="fil1 str0"
       d="M152.897 151.4c4.7421,-1.9224 10.1422,-3.113 14.9483,-3.4334"
       id="path686" />
    <line
       class="fil1 str0"
       x1="105.543"
       y1="188.146"
       x2="101.254"
       y2="190.708"
       id="line687" />
    <line
       class="fil1 str0"
       x1="113.774"
       y1="187.401"
       x2="104.643"
       y2="193.236"
       id="line688" />
    <line
       class="fil1 str0"
       x1="97.4085"
       y1="192.438"
       x2="88.5614"
       y2="196.797"
       id="line689" />
    <line
       class="fil1 str0"
       x1="97.412"
       y1="196.345"
       x2="91.94"
       y2="198.966"
       id="line690" />
    <line
       class="fil1 str0"
       x1="81.7687"
       y1="199.873"
       x2="70.6827"
       y2="204.165"
       id="line691" />
    <line
       class="fil1 str0"
       x1="88.498"
       y1="201.923"
       x2="73.5326"
       y2="208.173"
       id="line692" />
    <line
       class="fil1 str0"
       x1="78.2442"
       y1="201.347"
       x2="79.8462"
       y2="205.384"
       id="line693" />
    <line
       class="fil1 str0"
       x1="92.7908"
       y1="194.619"
       x2="94.9055"
       y2="197.502"
       id="line694" />
    <line
       class="fil1 str0"
       x1="104.518"
       y1="188.595"
       x2="106.761"
       y2="192.119"
       id="line695" />
    <path
       class="fil1 str3"
       d="M71.7719 204.039c1.7943,0 3.2041,1.0253 3.2041,2.3069 0,1.2176 -1.4098,2.2429 -3.2041,2.2429 -1.7302,0 -3.1401,-1.0253 -3.1401,-2.2429 0,-1.2816 1.4099,-2.3069 3.1401,-2.3069z"
       id="path696" />
    <path
       class="fil1 str4"
       d="M122.845 202.885c1.538,0 2.7556,0.8971 2.7556,1.9865 0,1.0894 -1.2176,1.9866 -2.7556,1.9866 -1.5379,0 -2.8196,-0.8972 -2.8196,-1.9866 0,-1.0894 1.2817,-1.9865 2.8196,-1.9865z"
       id="path697" />
    <line
       class="fil1 str0"
       x1="90.1059"
       y1="187.834"
       x2="97.0305"
       y2="192.63"
       id="line698" />
    <line
       class="fil1 str0"
       x1="101.186"
       y1="194.939"
       x2="107.402"
       y2="198.912"
       id="line699" />
    <line
       class="fil1 str0"
       x1="114.321"
       y1="202.669"
       x2="121.457"
       y2="206.6"
       id="line700" />
    <line
       class="fil1 str0"
       x1="101.201"
       y1="191.262"
       x2="111.054"
       y2="196.926"
       id="line701" />
    <line
       class="fil1 str0"
       x1="116.822"
       y1="200.259"
       x2="123.594"
       y2="202.949"
       id="line702" />
    <path
       class="fil1 str0"
       d="M57.7129 155.365l-2.8587 -3.1042c0.1923,-4.1013 2.8196,-6.3441 2.8837,-10.189 -0.3204,-3.2041 -3.2682,-7.1132 -4.4857,-9.8687 -2.0507,1.9225 -2.5633,7.1131 -2.1788,9.9968 0.1281,2.7555 2.0506,5.7674 2.371,8.5229 -3.8449,-4.9984 -7.5758,-11.0004 -11.0362,-17.3445"
       id="path703" />
    <path
       class="fil1 str0"
       d="M39.1541 127.333l-1.4098 -2.5633c1.4098,-3.4604 5.3188,-4.1012 6.985,-7.6258 1.6661,-4.5498 0.3204,-9.42 0.4485,-14.2262 -2.5633,2.3711 -4.9343,4.9984 -6.6645,8.4589 -1.2176,3.6526 -0.3845,8.7792 -1.6661,11.1502 -1.8584,-4.3575 -3.076,-8.5229 -4.1013,-12.6882 1.6661,-3.8449 5.0625,-5.7033 7.1131,-9.8046 1.9866,-4.5498 -0.2563,-8.7151 -0.3204,-13.1368 -3.5886,2.8196 -5.7033,6.3441 -6.6004,10.5095 -0.9613,3.5245 0.7049,6.6645 -0.8331,9.7404 -2.5633,-9.4841 -2.8837,-18.9042 -2.307,-28.3883 3.076,-2.4351 6.1519,-2.5633 9.6123,-6.4723 2.6274,-2.0506 2.6915,-9.6123 6.216,-12.8805 -4.1653,1.538 -8.1384,3.5245 -12.2397,8.0103 -1.7302,2.0506 -2.1147,6.7286 -3.909,8.5229 0.3204,-5.2547 1.0253,-10.3813 2.0507,-15.5078 3.7167,-0.3205 7.5616,-1.4099 10.7657,-3.845 2.6915,-2.4992 3.7168,-7.5617 5.1266,-12.3678 -3.4604,0.5767 -7.3694,3.5886 -10.0609,6.7286 -2.3069,2.8196 -2.9478,5.2547 -4.9984,7.4976"
       id="path704" />
    <path
       class="fil1 str0"
       d="M29.9654 114.633c-3.2041,-1.1535 -7.1522,-1.9116 -9.7155,-3.5777 -3.0118,-2.5633 -5.2547,-6.7287 -5.3188,-14.0981 2.5633,2.6915 5.5751,4.8702 9.2278,6.216 1.6021,0.8971 3.7809,4.1653 6.3441,9.0996 -1.1534,-5.8955 -2.2428,-11.8552 -2.8196,-18.0711 -3.2041,-3.076 -7.3053,-3.3964 -10.189,-6.0878 -2.6274,-2.8837 -4.678,-6.4082 -5.6392,-11.5989 3.8449,0.4486 7.3053,1.7943 10.3172,4.4858 1.9865,2.5633 3.7167,6.28 5.3829,9.9327l-0.1282 -10.958c-3.3963,-3.076 -8.3947,-4.8062 -9.4201,-7.6258 -1.5379,-3.6527 -2.1787,-7.6258 -1.7302,-11.9192 2.4352,1.1534 4.678,2.5632 6.3442,5.511 2.0506,3.3964 3.5885,7.1772 5.0624,10.958 0.3845,-7.4335 1.2176,-13.9699 2.4992,-19.8654 -2.2428,-2.5633 -5.511,-4.5498 -7.3694,-7.6258 -1.4098,-2.4992 -1.0253,-7.3053 -0.3204,-11.5988 1.9225,1.9865 3.7167,4.0372 5.3829,7.1131 2.1147,3.5245 2.2429,7.4976 3.3963,11.0221 0.1282,-3.2682 0.1282,-6.0878 1.2817,-9.5482 2.8196,-4.9984 5.8314,-5.7033 7.2412,-10.3813 1.3458,4.2294 1.4739,8.3307 0.1923,12.2397"
       id="path705" />
    <path
       class="fil1 str0"
       d="M33.1945 121.181c1.2816,4.9984 3.2041,8.9715 5.8315,13.6495 -3.2682,-2.6274 -5.9597,-5.6392 -9.356,-7.1131 -4.1654,-1.1535 -7.1131,1.1535 -11.2144,-1.4098 1.9225,4.742 4.9343,8.2025 9.1638,10.189 3.6526,1.2817 9.2278,1.2176 13.8417,1.8584 3.8449,6.4082 8.3589,12.4602 13.2932,17.7149"
       id="path706" />
    <path
       class="fil1 str0"
       d="M35.5655 151.62c5.9597,-1.1535 11.3577,-1.5413 15.523,0.3171"
       id="path707" />
    <path
       class="fil1 str0"
       d="M52.4897 153.6c-2.2428,2.1787 -4.7486,4.0437 -6.7351,4.4282"
       id="path708" />
    <path
       class="fil1 str0"
       d="M54.2916 155.657c-1.4098,0.1923 -3.7841,1.4381 -6.6678,3.3606"
       id="path709" />
    <line
       class="fil1 str0"
       x1="51.4611"
       y1="161.09"
       x2="54.7261"
       y2="159.566"
       id="line710" />
    <path
       class="fil1 str0"
       d="M51.9705 145.788c-1.4098,-2.7555 -2.4992,-3.4604 -3.909,-6.2159 -0.9612,-2.4992 0.769,-6.9209 2.1147,-12.1116 0.7049,1.8584 1.5271,4.0546 2.232,5.8489"
       id="path711" />
    <path
       class="fil1 str0"
       d="M25.1202 134.958c-1.2176,0.0641 -2.4352,0.1923 -3.6527,0.2564 2.5633,3.0118 4.678,6.6645 8.2666,7.1772 4.3575,1.0253 7.882,-2.2429 11.8551,-3.3964"
       id="path712" />
    <path
       class="fil1 str0"
       d="M45.7122 111.814c2.0506,-0.5768 3.631,-1.7194 5.7457,-3.77 0.5126,6.28 0.2563,9.4841 -1.1535,10.7658 -4.2294,3.7167 -7.54,2.7164 -12.3461,5.536"
       id="path713" />
    <path
       class="fil1 str0"
       d="M35.3092 105.993c3.3323,-1.3458 6.6004,-1.6662 10.189,-5.6392 1.4098,-2.7556 2.1147,-7.2413 2.9478,-11.663 -3.5886,1.2817 -6.4256,3.492 -7.7713,5.7989"
       id="path714" />
    <path
       class="fil1 str0"
       d="M16.9817 106.954c-2.1147,0.0641 -4.2935,0.1922 -6.4722,0.3204 3.8449,1.2817 4.9984,3.6527 9.6123,6.7927 2.1787,1.538 4.9343,1.1535 7.6898,0.9612"
       id="path715" />
    <path
       class="fil1 str0"
       d="M15.2091 85.1774c-2.9477,-0.7049 -5.9172,-0.7158 -9.3776,-0.1391 3.14,2.9478 5.7033,6.7287 10.958,8.587 3.5886,0.7049 7.2196,0.3845 10.8082,0.5127"
       id="path716" />
    <path
       class="fil1 str0"
       d="M20.2358 62.8844c-0.5127,-2.1147 -0.2422,-3.8634 0.2704,-6.1062 2.5633,2.9477 5.1266,5.8314 5.6393,8.587 0.4377,3.14 0.9004,7.2574 1.1285,10.3974"
       id="path717" />
    <path
       class="fil1 str0"
       d="M26.808 43.1461c1.4739,-2.371 2.093,-5.2721 1.3881,-8.1558 2.3069,2.7555 4.1653,5.8955 5.3188,9.6764"
       id="path718" />
    <path
       class="fil3 str5"
       d="M42.935 125.09c2.4992,0 4.4857,1.8584 4.4857,4.1013 0,2.3069 -1.9865,4.1653 -4.4857,4.1653 -2.4352,0 -4.4858,-1.8584 -4.4858,-4.1653 0,-2.2429 2.0506,-4.1013 4.4858,-4.1013z"
       id="path719" />
    <path
       class="fil3 str5"
       d="M29.4136 114.58c2.4992,0 4.4858,1.8583 4.4858,4.1012 0,2.307 -1.9866,4.1653 -4.4858,4.1653 -2.4351,0 -4.4857,-1.8583 -4.4857,-4.1653 0,-2.2429 2.0506,-4.1012 4.4857,-4.1012z"
       id="path720" />
    <path
       class="fil3 str5"
       d="M32.7459 87.858c2.4351,0 4.4858,1.8583 4.4858,4.1653 0,2.2429 -2.0507,4.1012 -4.4858,4.1012 -2.4992,0 -4.4857,-1.8583 -4.4857,-4.1012 0,-2.307 1.9865,-4.1653 4.4857,-4.1653z"
       id="path721" />
    <path
       class="fil1 str0"
       d="M44.9215 127.14c0.9612,1.7303 0.7049,3.2041 -0.769,4.4858"
       id="path722" />
    <path
       class="fil1 str0"
       d="M31.4002 116.631c0.9612,1.7943 0.7049,3.2682 -0.769,4.5498"
       id="path723" />
    <path
       class="fil1 str0"
       d="M34.7325 90.1008c0.9612,1.7302 0.7049,3.2682 -0.769,4.4858"
       id="path724" />
    <polygon
       class="fil6"
       points="33.9635,58.6366 36.8472,56.2014 37.5521,52.8692 37.488,55.5606 39.2182,53.6382 39.9872,49.6651 40.1153,52.2924 41.397,50.4981 41.6533,48.4475 41.9096,50.0496 44.8574,47.1018 41.397,51.8439 43.8321,50.9467 41.1407,52.6769 38.4492,55.7529 42.2941,53.7663 37.6161,56.65 "
       id="polygon725" />
    <path
       class="fil6"
       d="M33.0663 53.7022l1.2817 -3.0759 0 -4.3576 0.5126 3.2041 0.9613 -1.602 0.6408 -3.7168 0 2.8196c0,0 2.6914,-4.3576 2.7555,-6.5363 0.0641,-2.1147 -0.0595,3.9196 -1.0253,4.4216 0.4952,-0.2386 1.2175,-0.5767 1.2175,-0.5767l-2.9477 4.1653 2.8196 -1.538 -3.3323 2.5633c0,0 -2.5633,3.3964 -2.8837,4.2294z"
       id="path726" />
    <path
       class="fil6"
       d="M30.3108 49.0242l-0.5127 -4.4857 -1.3457 -2.4992c-0.0641,0 1.3457,1.4739 1.3457,1.4739 0,0 0.0641,-3.0119 -0.064,-4.1653 -0.1282,-1.1535 0.4485,3.5245 0.4485,3.5245 0,0 0.9613,-1.2817 0.9613,-1.2817l-0.769 2.0507 0.1281 2.6914c0,0 1.3458,-1.4739 1.2176,-2.5633 -0.1282,-1.0894 0.5767,1.7943 -0.769,3.3964 1.3457,-1.6021 -0.6408,1.8583 -0.6408,1.8583z"
       id="path727" />
    <path
       class="fil6"
       d="M29.6059 55.2402l-5.2547 -7.2413 1.602 1.4739c-0.0641,0 -0.7049,-3.2041 -0.7049,-3.2041 0,0 -1.7302,-1.4739 -1.6661,-1.4739 -0.0641,0 1.4739,0.5127 1.4739,0.5127 0,0 -1.0894,-3.3964 -1.0894,-3.3964 0,0 1.8584,3.909 1.8584,3.909 0,0 0.5126,-1.5379 0.5126,-1.5379 0,0 -0.2563,3.0759 -0.2563,3.0759 0,0 0.3845,1.8584 0.3845,1.8584 0,0 0.5126,1.538 0.5126,1.538 0,0 0.1923,-4.3576 0.1923,-4.3576 0,0 0.3845,4.7421 0.3845,4.7421l2.0506 4.1012z"
       id="path728" />
    <polygon
       class="fil6"
       points="30.7594,76.3232 33.4508,73.2473 33.6431,69.4023 34.0916,72.4142 34.9888,70.6199 35.7578,67.2876 35.95,69.7868 39.9872,64.5962 38.0006,67.8003 39.7309,67.1595 37.3598,68.6333 36.0141,70.9403 39.2182,69.146 35.4374,72.1579 "
       id="polygon729" />
    <path
       class="fil6"
       d="M26.594 77.5408l-3.0759 -4.2935 -1.2176 -5.3189c-0.064,0 0.1923,4.4217 0.1923,4.4217 0,0 -1.9225,-2.8196 -1.9225,-2.8196 0,0 0,-4.4217 0.0641,-4.4217 -0.0641,0 -0.5767,3.3323 -0.5126,3.3323 -0.0641,0 -1.6021,-4.6139 -1.538,-4.6139 -0.0641,0 0.6408,3.6527 0.7049,3.6527 -0.0641,0 -2.1788,-1.4739 -2.1147,-1.4739 -0.0641,0 2.371,2.6273 2.4351,2.6273 -0.0641,0 1.2176,2.8837 1.2176,2.8837 0,0 -1.9225,-0.8971 -1.9225,-0.8971 0,0 4.3576,3.2682 4.3576,3.2682l3.3322 3.6527z"
       id="path730" />
    <path
       class="fil6"
       d="M25.1202 68.2489l-0.3845 -3.845 -0.3204 1.0253c-0.0641,0 -2.8197,-4.6139 -2.8197,-4.6139l3.5246 7.4336z"
       id="path731" />
    <path
       class="fil6"
       d="M26.4659 91.6388l-2.8196 -2.1788 -3.076 -0.6408c-0.0641,0 2.307,0.1282 2.307,0.1282 0,0 -2.0506,-1.6021 -2.0506,-1.6021 0,0 -3.7809,-1.8584 -3.7809,-1.8584 0,0 2.4992,0.6408 2.5633,0.6408 -0.0641,0 -4.9984,-6.0237 -4.9984,-6.0237 0,0 3.9731,3.5245 4.0372,3.5245 -0.0641,0 -0.3204,-3.5885 -0.3204,-3.5885 0,0 1.0894,4.5498 1.0894,4.5498 0,0 3.0759,3.0118 3.14,3.0118 -0.0641,0 -0.769,-4.8061 -0.769,-4.8061 0,-0.0641 1.9224,5.7033 1.9224,5.7033 0,0 2.8197,3.3322 2.7556,3.14z"
       id="path732" />
    <path
       class="fil6"
       d="M21.5766 90.5769l-1.4905 -0.1284 -4.0442 0.0922c-0.0639,0.0055 3.1701,-0.5313 3.1701,-0.5313 0,0 -2.073,-0.9143 -2.0091,-0.9198 -0.0639,0.0055 -4.0443,0.0922 -3.9804,0.0867 -0.0639,0.0055 2.4733,-0.4067 2.5372,-0.4122 -0.0639,0.0055 -4.5148,-2.3756 -4.451,-2.3811 -0.0638,0.0055 5.0784,2.1982 5.1422,2.1927 -0.0638,0.0055 -1.95,-2.4686 -1.95,-2.4686 0,0 3.1907,2.683 3.1907,2.683l3.885 1.7868z"
       id="path733" />
    <path
       class="fil6"
       d="M28.9651 112.337l-3.076 -2.8196 -1.5379 -3.7168c-0.0641,0 0.2563,3.2041 0.2563,3.2041 0,0 -1.7302,-1.2816 -1.7302,-1.2816 0,0 -1.0253,-3.5245 -0.9612,-3.5245 -0.0641,0 0.1922,3.0118 0.2563,3.0118 -0.0641,0 -3.7809,-4.4216 -3.7168,-4.4216 -0.0641,0 1.3457,2.4351 1.4098,2.4351 -0.0641,0 -2.3069,-0.769 -2.2428,-0.769 -0.0641,0 3.973,2.8837 3.973,2.8837 0,0 -2.7555,-0.1282 -2.7555,-0.1282 0,0 3.7809,1.0894 3.7809,1.0894 0,0 3.2041,1.9225 3.2681,1.9225 -0.064,0 -4.0371,-0.1923 -3.973,-0.1923 -0.0641,0 4.8061,1.1535 4.8061,1.1535l2.2429 1.1535z"
       id="path734" />
    <path
       class="fil6"
       d="M33.7712 106.314l1.7943 -3.3964 3.7168 -3.7167 -3.2041 2.4992 0.7049 -2.3711 2.6914 -3.14 -2.2428 1.538 0.3844 -2.307 1.2817 -3.2681 -1.9866 3.909 -0.8971 3.6526 -1.1535 -1.5379 0.7049 3.0759c0,0 -1.7302,5.0625 -1.7943,5.0625z"
       id="path735" />
    <polygon
       class="fil6"
       points="39.0727,101.597 44.0711,98.3283 40.7388,99.8663 41.7641,98.5206 45.3527,95.9573 42.7894,96.9826 45.609,92.4328 42.9176,96.1495 42.6613,93.7785 42.4049,96.8544 41.7641,95.2524 41.7641,97.7516 "
       id="polygon736" />
    <path
       class="fil6"
       d="M39.1541 120.732l2.4351 -4.0371 3.0119 -3.909 -3.0119 3.14 0.4486 -2.2429 2.2429 -3.909 -1.7302 2.4351 1.602 -5.8955 -2.6273 7.049 -1.3458 -2.0506 1.0894 3.0759 -0.3204 1.9866 -0.7049 1.1534 -0.8971 -3.6526c0,0 0.7049,5.0624 -0.1923,6.8567z"
       id="path737" />
    <path
       class="fil6"
       d="M44.4729 120.54l1.6021 -2.1788 3.9731 -3.0119 -3.4605 1.9866 3.6527 -4.1653 -2.8837 2.6914 2.4992 -4.8702 -2.8196 4.5498c0,0 -2.5633,4.2935 -2.5633,4.9984z"
       id="path738" />
    <path
       class="fil6"
       d="M37.3598 135.727l-4.5498 -2.4992 -1.9225 -2.8837c-0.064,0 1.1535,3.076 1.1535,3.076 0,0 -2.4351,-0.4486 -2.371,-0.4486 -0.0641,0 -2.0506,-2.8196 -1.9866,-2.8196 -0.064,0 1.1535,2.4351 1.1535,2.4351 0,0 -2.1147,-0.769 -2.1147,-0.769 0,0 -1.4098,-1.9865 -1.3457,-1.9865 -0.0641,0 0.7049,1.9224 0.769,1.9224 -0.0641,0 -3.9731,-2.2428 -3.9731,-2.2428 0,0 5.447,3.4604 5.511,3.4604 -0.064,0 -1.9224,0.3845 -1.9224,0.3845 0,0 5.8955,0.5767 5.9596,0.5767 -0.0641,0 -3.5245,0.5768 -3.5245,0.5768 0,0 7.2413,-0.3204 9.1637,1.2175z"
       id="path739" />
    <path
       class="fil6"
       d="M35.95 139.316l-3.14 0 -1.4739 -1.2175c-0.0641,0 0.5127,0.9612 0.5127,0.9612 0,0 -1.8584,-0.2563 -1.7943,-0.2563 -0.0641,0 -1.7302,-1.4098 -1.7302,-1.4098 0,0 0.8971,1.3457 0.9612,1.3457 -0.0641,0 -3.7168,-1.3457 -3.7168,-1.3457 0,0 3.2041,1.6661 3.2682,1.6661 -0.0641,0 -2.1147,0.1282 -2.0506,0.1282 -0.0641,0 5.1906,0.5126 5.1906,0.5126 0,0 -2.2428,1.2817 -2.2428,1.2817l6.2159 -1.6662z"
       id="path740" />
    <path
       class="fil6"
       d="M50.0481 153.542l-3.0119 0.6409 -4.2294 -0.6409c0,0 2.6914,0.8972 2.7555,0.8331 -0.0641,0.0641 -3.6527,0.8331 -3.6527,0.769 0,0.0641 4.614,-0.0641 4.678,-0.1282 -0.064,0.0641 -1.9865,1.8584 -1.9865,1.7943 0,0.0641 3.14,-1.8584 3.14,-1.8584 0,0 2.371,-1.5379 2.307,-1.4098z"
       id="path741" />
    <path
       class="fil6"
       d="M53.1881 136.432l0.9612 4.2294 -1.6661 -1.9224c0,0 1.602,2.6914 1.602,2.6273 0,0.0641 -1.4739,0.0641 -1.4098,0 -0.0641,0.0641 1.4739,1.538 1.4739,1.538 0,0 0.2563,6.0878 0.2563,6.0237 0,0.0641 0.5127,-4.9984 0.5127,-4.9984 0,0 1.3457,-2.8196 1.3457,-2.8837 0,0.0641 -1.4739,1.7943 -1.4739,1.7943 0,0 1.0253,-4.1653 1.0253,-4.1653 0,0 -1.1534,1.538 -1.1534,1.538l-1.4739 -3.7809z"
       id="path742" />
    <path
       class="fil1 str0"
       d="M27.4945 54.507c-4.3609,2.2288 -2.168,7.4792 1.7193,7.2696"
       id="path743" />
    <path
       class="fil1 str0"
       d="M27.1708 56.3937c-0.6408,1.1535 -0.6408,2.3069 0.4486,3.5886"
       id="path744" />
    <path
       class="fil1 str0"
       d="M38.257 63.0582c-0.5768,-1.2816 -1.7943,-2.2429 -3.14,-2.2429 -1.8584,0 -3.4605,1.7943 -3.4605,3.9731 0,1.2176 0.5768,2.307 1.3457,3.076"
       id="path745" />
    <path
       class="fil1 str0"
       d="M34.9888 62.4174c-0.8972,0.5767 -1.4739,1.2816 -1.6661,2.371"
       id="path746" />
    <path
       class="fil1 str0"
       d="M23.0087 76.8858c-1.5811,0.1158 -2.6185,0.7503 -3.1763,2.5138"
       id="path747" />
    <path
       class="fil1 str0"
       d="M27.4803 81.667c-0.802,1.6003 -1.8482,2.346 -3.1932,2.6024"
       id="path748" />
    <path
       class="fil1 str0"
       d="M26.0173 79.9118c-0.3204,0.9612 -0.8331,1.6661 -1.8584,2.0506"
       id="path749" />
    <path
       class="fil1 str0"
       d="M46.4595 146.237c-0.3845,1.8584 -2.1147,3.2041 -4.1013,3.2041 -2.3069,0 -4.2294,-1.7943 -4.2294,-3.9731 0,-2.1788 1.6661,-3.9731 4.2294,-3.9731 0.3204,0 0.7049,0.0641 1.0253,0.1282"
       id="path750" />
    <path
       class="fil1 str0"
       d="M39.6668 145.852c1.4098,1.7302 3.0759,2.371 5.1265,0.7049"
       id="path751" />
    <path
       class="fil0"
       d="M63.8257 162.385c1.2816,0.3844 2.5633,0.7689 3.7808,1.0893 0,1.538 0,3.076 0,4.614 0,1.4738 0,3.0118 0,4.5498 1.7303,0.4486 3.4605,0.833 5.1907,1.2175 0,0.9613 0,1.8584 0,2.7556 -2.9478,-0.6409 -5.9596,-1.4098 -8.9715,-2.307 0,-1.9865 0,-3.9731 0,-5.9596 0,-1.9866 0,-3.9731 0,-5.9596zm10.6376 2.7555c1.2817,0.2563 2.5633,0.5126 3.8449,0.7049 0,1.9865 0,3.9731 0,5.8955 0,1.9866 0,3.9731 0,5.9597 -1.2816,-0.2564 -2.5632,-0.4486 -3.8449,-0.7049 0,-1.9866 0,-3.9731 0,-5.9597 0,-1.9224 0,-3.909 0,-5.8955zm10.6376 1.6661c0.3204,1.2817 0.7049,2.4992 1.0253,3.7809 0.3205,1.2175 0.6409,2.4992 0.9613,3.7808 0.3845,-1.2176 0.7049,-2.371 1.0253,-3.5886 0.3204,-1.1535 0.7049,-2.371 1.0253,-3.5886 1.538,0.1282 3.0759,0.1923 4.5498,0.3204 0,1.9225 0,3.909 0,5.8956 0,1.9224 0,3.909 0,5.8955 -1.0894,-0.1282 -2.2428,-0.1282 -3.3963,-0.1922 0,-0.769 0,-1.4098 0,-2.1788 0,-0.7049 0.0641,-1.3457 0.0641,-1.8584 0,-0.5767 0,-1.0253 0,-1.4098 0.064,-0.769 0.1281,-1.4098 0.1922,-2.1788 0,0 0,0 0,0 -0.3845,1.2816 -0.7049,2.4992 -1.0894,3.7168 -0.3204,1.2175 -0.7049,2.4992 -1.0253,3.7808 -0.8972,-0.1282 -1.7302,-0.1922 -2.5633,-0.3204 -0.3845,-1.2817 -0.7049,-2.5633 -1.0894,-3.909 -0.3845,-1.2817 -0.7049,-2.6274 -1.0894,-3.909 0,0 0,0 -0.0641,0 0.0641,0.5767 0.1923,1.1535 0.2564,1.7302 0,0.3204 0,0.8331 0,1.3457 0,0.5127 0,1.2176 0,1.9866 0,0.833 0,1.7302 0,2.5632 -1.0894,-0.1281 -2.1788,-0.3204 -3.3323,-0.4485 0,-1.9225 0,-3.909 0,-5.8956 0,-1.9865 0,-3.9731 0,-5.8955 1.538,0.1922 3.0119,0.3845 4.5498,0.5767zm10.7017 0.769c3.14,0.0641 6.2801,0.0641 9.4201,-0.0641 0,0.8972 0,1.7943 0,2.7555 -1.8584,0.0641 -3.7809,0.0641 -5.6392,0.0641 0,0.5768 0,1.2176 0,1.7302 1.602,0 3.14,0 4.742,-0.064 0,0.8971 0,1.8583 0,2.7555 -1.602,0.0641 -3.14,0.0641 -4.742,0.0641 0,0.6408 0,1.2175 0,1.8583 1.9865,-0.064 3.909,-0.064 5.8314,-0.1281 0,0.8971 0,1.8584 0,2.7555 -3.2041,0.0641 -6.4082,0.0641 -9.6123,0.0641 0,-1.9866 0,-3.9731 0,-5.8956 0,-1.9865 0,-3.973 0,-5.8955zm11.5989 -0.1282c1.2175,-0.1281 2.4992,-0.1922 3.7808,-0.3204 0,1.9866 0,3.9731 0,5.9597 0,1.9865 0,3.909 0,5.8955 -1.2816,0.0641 -2.5633,0.1282 -3.7808,0.1922 0,-1.9224 0,-3.909 0,-5.8314 0,-1.9866 0,-3.9731 0,-5.8956zm9.8045 1.7943c0,0.769 0,1.538 0,2.307 0.5127,-0.0641 1.0253,-0.1282 1.538,-0.1923 1.1535,-0.1281 1.6661,-0.6408 1.6661,-1.4098 0,-0.2563 -0.1281,-0.6408 -0.3845,-0.769 -0.2563,-0.1281 -0.6408,-0.1922 -1.0894,-0.1922 -0.5126,0.1282 -1.1534,0.1922 -1.7302,0.2563zm-3.7808 -2.2428c1.7943,-0.2564 3.7167,-0.5127 5.511,-0.7049 1.9866,-0.3205 3.3323,-0.2564 4.0372,0.1922 0.6408,0.4486 1.0253,1.2176 1.0253,2.307 0,0.7689 -0.2563,1.4738 -0.6408,2.0506 -0.3204,0.4486 -0.769,0.8971 -1.4098,1.1535 0.769,0.1281 1.2816,0.4485 1.538,0.7049 0.2563,0.3204 0.5126,1.0253 0.5126,2.1147 0,0.3204 0,0.5767 0,0.8971 0,0.769 0.0641,1.1535 0.3204,1.0253 0,0.1923 0,0.3204 0,0.4486 -1.2816,0.1922 -2.4992,0.4486 -3.7808,0.6408 -0.1282,-0.3845 -0.1923,-0.8971 -0.1923,-1.602 0,-0.7049 -0.1281,-1.2176 -0.1281,-1.6021 -0.0641,-0.2563 -0.3204,-0.5767 -0.5768,-0.5767 -0.3844,-0.1282 -1.0894,0 -1.9224,0.0641 -0.1923,0 -0.3204,0.064 -0.5127,0.064 0,0.7049 0,1.4099 0,2.0507 0,0.7049 0,1.4098 0,2.1147 -1.2816,0.1281 -2.5633,0.2563 -3.8449,0.3845 0.0641,-1.9866 0,-3.909 0,-5.8956 0.0641,-1.9224 0,-3.909 0.0641,-5.8314zm15.7642 -2.7556c1.2816,-0.3204 2.5632,-0.6408 3.8449,-1.0253 0.7049,1.7943 1.4098,3.5886 2.0506,5.3829 0.7049,1.7302 1.4098,3.5245 2.1147,5.3188 -1.3457,0.3845 -2.6273,0.769 -3.8449,1.1535 -0.1922,-0.5127 -0.3204,-0.9612 -0.3845,-1.4739 -1.2816,0.3204 -2.5633,0.6408 -3.7808,0.8972 -0.1282,0.6408 -0.3204,1.1534 -0.4486,1.7302 -1.2176,0.2563 -2.4992,0.5767 -3.6527,0.833 0.6408,-2.1147 1.3457,-4.2935 2.0506,-6.4082 0.6409,-2.0506 1.3458,-4.2294 2.0507,-6.4082zm0.7049 7.6258c0.769,-0.1923 1.5379,-0.4486 2.371,-0.5767 -0.1922,-0.7049 -0.4486,-1.3458 -0.6408,-1.9866 -0.1923,-0.6408 -0.3845,-1.2816 -0.5768,-1.9865 -0.1922,0.769 -0.3844,1.5379 -0.5767,2.3069 -0.1922,0.7049 -0.3845,1.4739 -0.5767,2.2429z"
       id="path752" />
    <path
       class="fil0"
       d="M16.6613 159.502l4.2294 -6.4082 -2.2428 -1.4739 0.8971 -1.2817c1.538,1.1535 2.7555,1.2176 3.5886,0.1282l1.538 0.9612 -6.1519 9.356 -1.8584 -1.2816zm6.0237 0.8971c0.0641,-0.1282 0.1282,-0.3204 0.2564,-0.5767 0.7689,-1.0253 1.7943,-1.4739 3.0118,-1.2817 -0.5126,-0.833 -0.5126,-1.7302 0,-2.6273 0.0641,0 0.1923,-0.1282 0.2563,-0.2564 0.4486,-0.5767 1.0894,-0.8971 1.9225,-0.9612 0.8331,-0.1282 1.6661,0.1282 2.5633,0.7049 0.8971,0.6408 1.4739,1.3457 1.602,2.2429 0.1923,0.769 0,1.4739 -0.4485,2.1788 -0.5768,0.769 -1.3458,1.1534 -2.1788,1.0253 0.6408,1.0253 0.5126,2.0506 -0.1923,3.14 -0.1281,0.1923 -0.2563,0.3845 -0.3204,0.4486 -0.5767,0.7049 -1.2816,1.0894 -2.1147,1.2175 -0.8331,0.1282 -1.7943,-0.1281 -2.6914,-0.7049 -0.9613,-0.5767 -1.6021,-1.3457 -1.8584,-2.1788 -0.2563,-0.8971 -0.1923,-1.6661 0.1922,-2.371zm5.3188 -1.3457c0.3845,0.2563 0.769,0.4486 1.1535,0.3845 0.3845,-0.1282 0.6408,-0.3204 0.8972,-0.6408 0.2563,-0.3204 0.3204,-0.7049 0.2563,-1.0894 -0.1282,-0.3845 -0.2563,-0.6409 -0.6408,-0.8972 -0.3204,-0.1922 -0.6408,-0.2563 -1.0253,-0.2563 -0.3204,0.0641 -0.5768,0.2563 -0.8331,0.5126 -0.2563,0.2564 -0.3845,0.5768 -0.3204,0.9613 -0.0641,0.3845 0.1282,0.7049 0.5126,1.0253zm-3.0759 1.9865c-0.3204,0.4486 -0.3845,0.8972 -0.3845,1.2817 0.0641,0.3845 0.2563,0.7049 0.5768,0.9612 0.3204,0.3204 0.833,0.4486 1.2816,0.4486 0.4486,-0.0641 0.8971,-0.3204 1.2176,-0.8331 0.2563,-0.4486 0.3844,-0.8331 0.3204,-1.2816 -0.1282,-0.4486 -0.3845,-0.8331 -0.8331,-1.0894 -0.3845,-0.2564 -0.769,-0.3204 -1.1535,-0.2564 -0.3845,0.1282 -0.769,0.3845 -1.0253,0.769zm3.5245 6.2801c0.5768,-0.9613 1.2176,-1.4739 1.9866,-1.7302 0.7049,-0.3205 1.602,-0.5127 2.6273,-0.5768 0.8972,-0.0641 1.6021,-0.0641 2.1147,-0.0641 0.3845,-0.064 0.8331,-0.1922 1.1535,-0.3845 0.3204,-0.1281 0.6408,-0.3844 0.8972,-0.7049 0.1922,-0.2563 0.2563,-0.7049 0.2563,-1.0894 0,-0.3844 -0.1923,-0.7689 -0.7049,-1.0893 -0.3204,-0.1923 -0.6408,-0.3205 -0.8972,-0.3205 -0.2563,0.0641 -0.5126,0.0641 -0.7049,0.2564 -0.2563,0.1922 -0.4485,0.3845 -0.5767,0.5126 -0.0641,0.1282 -0.2563,0.2564 -0.3204,0.4486l-1.7302 -1.2176c0.5767,-0.8971 1.3457,-1.5379 2.2428,-1.8583 0.8972,-0.3204 1.9225,-0.1282 2.8837,0.5126 0.5768,0.3845 1.0894,0.8972 1.4098,1.3457 0.3845,0.5768 0.5127,1.2176 0.5127,1.7943 -0.0641,0.6409 -0.1923,1.3458 -0.5767,1.9866 -0.5768,0.769 -1.2176,1.2175 -1.9225,1.4739 -0.8331,0.1922 -1.8584,0.2563 -3.0119,0.2563 -1.1534,0 -1.9224,0.1282 -2.2428,0.3204l3.9731 2.6915 -1.0894 1.602 -6.2801 -4.1653zm11.0862 -0.7049c1.7943,-2.2429 3.7168,-2.8196 5.8315,-1.538 0.769,0.5127 1.2816,1.0894 1.4098,1.7302 0.3204,0.769 0.2563,1.6021 -0.1923,2.4992l-1.8583 -1.2175c0.1922,-0.1923 0.2563,-0.3845 0.2563,-0.5127 -0.0641,-0.2563 -0.0641,-0.3845 -0.1923,-0.6408 -0.1281,-0.1282 -0.3204,-0.3204 -0.5126,-0.4486 -0.3204,-0.1922 -0.6408,-0.2563 -0.8972,-0.2563 -0.3845,0 -0.7049,0.1922 -1.0894,0.5126 -0.3845,0.3204 -0.833,0.769 -1.2175,1.3458l0 0c0.6408,-0.1923 1.4098,-0.1282 2.1788,0.3204 0.833,0.5126 1.3457,1.2816 1.5379,2.2428 0.1282,0.9613 -0.064,1.8584 -0.5767,2.6274 -0.3845,0.5767 -0.8331,1.0253 -1.3457,1.4098 -0.5768,0.3845 -1.2176,0.5127 -1.8584,0.5767 -0.7049,0 -1.4098,-0.1922 -2.1147,-0.6408 -2.1788,-1.4098 -2.2429,-3.7808 -0.1923,-6.7927 0.1282,-0.2563 0.3205,-0.4485 0.4486,-0.6408 0.1923,-0.2563 0.3204,-0.5127 0.3845,-0.5767l0 0zm-0.1282 4.0371c-0.2563,0.5127 -0.3204,1.0253 -0.2563,1.4098 0.1282,0.4486 0.3845,0.769 0.769,1.0254 0.3204,0.2563 0.769,0.2563 1.2176,0.1922 0.3845,-0.1922 0.7689,-0.5127 1.1534,-1.0253 0.3204,-0.5127 0.5127,-1.0253 0.4486,-1.4098 -0.1282,-0.4486 -0.3204,-0.8331 -0.7049,-1.0894 -0.5126,-0.3845 -0.9612,-0.3845 -1.4739,-0.1923 -0.5126,0.2564 -0.833,0.5768 -1.1535,1.0894z"
       id="path753" />
    <path
       class="fil0"
       d="M160.718 172.703l-4.2935 -6.3442 -2.2428 1.538 -0.8972 -1.2816c1.6661,-1.0253 2.1788,-2.1788 1.4739,-3.3323l1.538 -1.0253 6.2159 9.2278 -1.7943 1.2176zm3.076 -5.1266c-0.1282,-0.1922 -0.2564,-0.2563 -0.4486,-0.4486 -0.7049,-1.1535 -0.7049,-2.2428 -0.0641,-3.3322 -0.9612,0.1922 -1.7943,-0.1923 -2.371,-1.0254 0,-0.064 -0.0641,-0.1922 -0.1923,-0.3204 -0.3204,-0.6408 -0.3845,-1.3457 -0.1281,-2.1788 0.1922,-0.7689 0.7689,-1.4738 1.6661,-2.0506 0.8971,-0.5767 1.7943,-0.833 2.6274,-0.6408 0.833,0.1282 1.4098,0.5767 1.9224,1.2816 0.4486,0.8331 0.5127,1.6662 0.1282,2.4352 1.1535,-0.2564 2.0506,0.2563 2.7555,1.2816 0.1923,0.1922 0.2563,0.4486 0.3845,0.5127 0.3845,0.833 0.4486,1.602 0.2563,2.4351 -0.1922,0.769 -0.769,1.5379 -1.602,2.1788 -1.0253,0.7049 -1.9866,0.9612 -2.8196,0.8971 -0.8972,-0.0641 -1.6021,-0.4486 -2.1147,-1.0253zm0.7689 -5.5111c0.3845,-0.1922 0.7049,-0.5126 0.769,-0.8971 0.0641,-0.3845 0,-0.7049 -0.1922,-1.0253 -0.2563,-0.3845 -0.5127,-0.5768 -0.8972,-0.6408 -0.3845,-0.0641 -0.7049,0 -1.0894,0.2563 -0.2563,0.1922 -0.5126,0.4486 -0.6408,0.769 -0.0641,0.3204 0,0.6408 0.1282,1.0253 0.1922,0.3204 0.4486,0.5126 0.833,0.6408 0.3205,0.1282 0.705,0.1282 1.0894,-0.1282zm0.7049 3.6527c0.3205,0.4486 0.6409,0.7049 1.0254,0.8331 0.3844,0.0641 0.7689,0 1.0894,-0.1923 0.3844,-0.1922 0.7049,-0.5767 0.8971,-0.9612 0.1282,-0.5126 0.0641,-0.9612 -0.3204,-1.4739 -0.2563,-0.4486 -0.5767,-0.6408 -1.0253,-0.769 -0.5127,-0.064 -0.8972,0 -1.3457,0.3204 -0.3845,0.2564 -0.5768,0.5768 -0.6409,1.0254 -0.064,0.3845 0.0641,0.7689 0.3204,1.2175zm3.5246 -6.5363c-1.4739,-2.4352 -1.1535,-4.4217 0.7689,-5.8956 0.769,-0.5127 1.4739,-0.769 2.1147,-0.7049 0.8331,0.0641 1.6021,0.4486 2.2429,1.2176l-1.7943 1.1534c-0.1281,-0.1922 -0.2563,-0.3204 -0.4486,-0.3845 -0.1922,0 -0.3844,-0.064 -0.5767,0 -0.1922,0 -0.4486,0.0641 -0.6408,0.2564 -0.2563,0.1922 -0.4486,0.4485 -0.5767,0.769 -0.1282,0.3204 -0.0641,0.6408 0.064,1.1534 0.1923,0.4486 0.3845,1.0253 0.769,1.6021l0.0641 0.0641c0,-0.7049 0.3845,-1.3458 1.0894,-1.8584 0.769,-0.6408 1.6661,-0.8331 2.6274,-0.6408 0.9612,0.2563 1.6661,0.769 2.2428,1.602 0.3845,0.5127 0.5768,1.1535 0.769,1.7302 0.1282,0.6409 0.0641,1.3458 -0.1282,1.9225 -0.3204,0.6408 -0.7049,1.2176 -1.4738,1.7302 -2.1147,1.4098 -4.2935,0.6408 -6.4082,-2.4351 -0.0641,-0.1923 -0.2564,-0.4486 -0.3845,-0.6408 -0.1923,-0.2564 -0.3204,-0.4486 -0.3845,-0.5768l0.0641 -0.064zm3.7167 1.7302c0.3204,0.3845 0.769,0.7049 1.1535,0.769 0.4486,0 0.8331,-0.0641 1.2175,-0.3205 0.3205,-0.2563 0.5768,-0.5767 0.6409,-1.0253 0,-0.4485 -0.1923,-0.8971 -0.4486,-1.4739 -0.3845,-0.5126 -0.769,-0.8971 -1.2176,-0.9612 -0.4485,-0.1282 -0.833,-0.0641 -1.2816,0.1923 -0.5127,0.3845 -0.7049,0.7689 -0.7049,1.3457 0.0641,0.5126 0.2563,1.0253 0.6408,1.4739zm5.1907 -3.7809l1.7302 -1.1534c0.4485,0.5767 0.833,0.8971 1.2816,0.9612 0.3845,0.0641 0.8331,-0.0641 1.2176,-0.3204 0.3845,-0.2564 0.5767,-0.5768 0.7049,-0.9613 0.0641,-0.3845 0,-0.833 -0.2564,-1.2816 -0.3204,-0.5127 -0.7049,-0.8331 -1.2175,-0.8331 -0.4486,0 -1.0253,0.2564 -1.7302,0.7049l-0.1282 0.0641 -0.8971 -1.2816c1.2175,-0.7049 1.602,-1.4739 1.2175,-2.2429 -0.2563,-0.4486 -0.5767,-0.769 -1.0253,-0.8331 -0.3204,-0.1281 -0.7049,-0.064 -1.0894,0.1282l0 0c-0.3845,0.2563 -0.6408,0.6408 -0.7049,1.0253 -0.0641,0.4486 0.0641,0.8972 0.4486,1.3457l-1.7302 1.1535c-0.5127,-0.769 -0.769,-1.602 -0.7049,-2.5633 0.1281,-0.9612 0.7049,-1.7302 1.7302,-2.4351 0.7049,-0.4486 1.3457,-0.7049 2.0506,-0.769 0.5767,0 1.2176,0.1923 1.6661,0.4486 0.5127,0.3204 0.8331,0.8331 1.1535,1.3457 0.3204,0.7049 0.2563,1.4098 -0.0641,2.1147l0 0c0.5768,-0.1281 1.1535,-0.1281 1.6021,0.1282 0.5126,0.3204 0.8971,0.7049 1.2816,1.2176 0.5127,0.7689 0.6408,1.6661 0.5127,2.5632 -0.1923,1.0254 -0.8331,1.8584 -1.9225,2.5633 -0.769,0.5127 -1.4739,0.6408 -2.1788,0.7049 -0.6408,0 -1.2175,-0.1922 -1.6661,-0.5126 -0.5127,-0.3204 -0.9612,-0.769 -1.2816,-1.2817z"
       id="path754" />
    <path
       class="fil0"
       d="M64.6588 180.713l1.4098 -4.2294 3.0118 1.0894 -0.2563 0.7049 -2.1147 -0.7049 -0.3204 0.9612 1.7943 0.6408 -0.1923 0.7049 -1.8583 -0.6408 -0.6409 1.7943 -0.833 -0.3204zm3.5245 1.2176l1.1535 -4.2294 3.14 0.833 -0.1923 0.769 -2.3069 -0.6408 -0.1923 0.8971 2.0507 0.5768 -0.1923 0.769 -2.1147 -0.5768 -0.3204 1.0894 2.4351 0.7049 -0.1922 0.7049 -3.2682 -0.8971zm4.1653 -4.8062l-1.0894 0.6408 -0.6408 -0.1922 0.8331 -0.7049 0.8971 0.2563zm1.4739 6.4082l0.8971 -4.3576 0.8972 0.1282 -0.3204 1.6661 1.7302 0.3845 0.3845 -1.6661 0.8331 0.1922 -0.8972 4.3576 -0.8971 -0.1281 0.3844 -1.9866 -1.7302 -0.3845 -0.3845 1.9225 -0.8971 -0.1282zm4.6139 -1.0894c0.0641,-0.5126 0.1922,-0.9612 0.3845,-1.2816 0.1922,-0.3845 0.5126,-0.5768 0.8331,-0.769 0.3845,-0.1922 0.833,-0.1922 1.3457,-0.1282 0.2563,0.0641 0.5126,0.1282 0.7049,0.2564 0.2563,0.1281 0.4486,0.3204 0.5767,0.5126 0.1923,0.2564 0.3204,0.5127 0.3845,0.8331 0.0641,0.3204 0.0641,0.7049 0,1.0894 -0.1282,0.5126 -0.2563,0.8971 -0.5126,1.2175 -0.1923,0.2564 -0.5127,0.5127 -0.8972,0.6409 -0.3204,0.1281 -0.7049,0.1281 -1.0894,0.064 -0.4486,-0.064 -0.8331,-0.2563 -1.0894,-0.4485 -0.2563,-0.2564 -0.5126,-0.5127 -0.5767,-0.8972 -0.0641,-0.3204 -0.1923,-0.7049 -0.0641,-1.0894zm0.9612 -0.1922c-0.1281,0.2563 -0.1281,0.5767 -0.0641,0.833 0,0.1923 0.1282,0.4486 0.2564,0.705 0.1922,0.1281 0.3845,0.3204 0.7049,0.3204 0.2563,0.064 0.5126,0 0.7049,-0.1282 0.1922,-0.0641 0.3845,-0.2563 0.4486,-0.4486 0.1922,-0.2563 0.2563,-0.4486 0.2563,-0.6408 0.1922,-1.0894 -0.1282,-1.7302 -0.8972,-1.7943 -0.1922,-0.0641 -0.3845,-0.0641 -0.5767,0 -0.1922,0.0641 -0.3845,0.1282 -0.4486,0.3845 -0.1922,0.1922 -0.3204,0.4486 -0.3845,0.769l0 0zm3.5245 2.9478l0.5768 -4.4217 0.9612 0.0641 1.4098 3.3322 0.3845 -3.0759 0.8331 0.0641 -0.5768 4.4857 -0.8971 -0.1281 -1.4098 -3.3323 -0.0641 0 -0.3845 3.0759 -0.8331 -0.064zm4.4858 0.5767l0.3204 -4.4217 2.2429 0.1282c0.4485,0.0641 0.7689,0.1922 1.0253,0.4486 0.1922,0.2563 0.3204,0.5767 0.3204,0.8971 -0.0641,0.2563 -0.1282,0.5127 -0.2563,0.7049 -0.1282,0.1282 -0.3205,0.3204 -0.5768,0.3204 0.2563,0.1282 0.4486,0.2564 0.4486,0.3845 0.0641,0.1923 0.0641,0.3845 0.0641,0.7049l0 0.1282c0,0.0641 0,0.1922 -0.0641,0.2563 0.0641,0.1282 0.0641,0.3204 0.0641,0.4486 0,0.0641 0.0641,0.1282 0.1281,0.1922l0 0.1282 -1.0253 -0.1282c-0.0641,-0.064 -0.0641,-0.1922 -0.0641,-0.2563 0,-0.1282 0,-0.1922 0,-0.2563 0,-0.1282 0,-0.1923 0,-0.3204 0,-0.1282 0,-0.1923 0,-0.2564 0.0641,-0.2563 0,-0.3844 -0.064,-0.5126 -0.0641,-0.0641 -0.2564,-0.1282 -0.5768,-0.1282l-1.0253 -0.0641 -0.0641 1.7303 -0.8971 -0.1282zm1.0894 -2.4351l1.1535 0.1281c0.4485,0 0.7049,-0.1922 0.7049,-0.5767 0,-0.1282 -0.0641,-0.3204 -0.1282,-0.4486 -0.0641,-0.0641 -0.2563,-0.1922 -0.5127,-0.1922l-1.1534 -0.0641 -0.0641 1.1535zm3.14 2.8196l1.602 -4.4217 1.0894 0 1.538 4.4858 -1.0253 -0.0641 -0.3204 -0.8972 -1.6021 0 -0.3204 0.8972 -0.9612 0zm2.1147 -3.3964l-0.5767 1.7303 1.1534 0 -0.5767 -1.7303zm4.4217 3.5245l-0.1282 -4.4857 3.3323 -0.0641 0 0.769 -2.3711 0.0641 0 0.9612 2.1788 -0.0641 0 0.769 -2.1788 0.0641 0 1.1535 2.4992 -0.0641 0 0.769 -3.3322 0.1281zm6.7927 -0.2563l-0.2564 -3.6527 -1.3457 0.1282 -0.0641 -0.8331 3.6527 -0.2563 0.0641 0.8331 -1.3457 0.0641 0.2563 3.6526 -0.9612 0.0641zm2.8196 -0.1922l-0.4486 -4.4217 2.2429 -0.2563c0.3845,-0.0641 0.833,0.0641 1.0253,0.2563 0.2563,0.2563 0.4486,0.5127 0.5126,0.8331 0,0.2563 -0.064,0.5126 -0.1281,0.7049 -0.0641,0.1922 -0.3204,0.3204 -0.5127,0.4486 0.2563,0.064 0.4486,0.1281 0.5127,0.2563 0.1281,0.1922 0.1281,0.4486 0.1922,0.6408l0 0.2563c0,0.0641 0,0.1282 0,0.1923 0.0641,0.1922 0.0641,0.3204 0.1282,0.3845 0,0.1281 0.0641,0.1922 0.1922,0.1922l0 0.1282 -1.0253 0.1281c-0.0641,-0.1281 -0.0641,-0.2563 -0.1282,-0.3204 0,-0.1281 -0.064,-0.1922 -0.064,-0.2563 0,-0.0641 0,-0.1922 0,-0.3204 0,-0.0641 -0.0641,-0.1922 -0.0641,-0.2563 0,-0.1923 -0.0641,-0.3204 -0.1282,-0.4486 -0.1281,-0.0641 -0.3204,-0.0641 -0.5767,-0.0641l-1.0253 0.0641 0.1922 1.7302 -0.8971 0.1282zm0.6408 -2.6274l1.1535 -0.0641c0.4485,-0.0641 0.6408,-0.3204 0.5767,-0.7049 0,-0.1922 -0.0641,-0.3204 -0.1922,-0.3845 -0.0641,-0.1281 -0.2564,-0.1281 -0.5127,-0.1281l-1.1535 0.1281 0.1282 1.1535zm3.4604 2.2429l0.8972 -4.678 1.0894 -0.1282 2.1787 4.2294 -1.0253 0.1282 -0.3845 -0.8331 -1.602 0.1923 -0.2563 0.9612 -0.8972 0.1282zm1.538 -3.7168l-0.3204 1.7943 1.2175 -0.1281 -0.833 -1.6662 -0.0641 0zm5.1906 2.6915l-1.9865 0.3204 -0.769 -4.3576 2.1147 -0.3845c0.4486,-0.0641 0.769,-0.0641 1.0253,0.1282 0.2564,0.1281 0.4486,0.3845 0.5127,0.6408 0.0641,0.2563 0.0641,0.4486 0,0.6408 -0.0641,0.1923 -0.1923,0.3845 -0.3204,0.4486 0.1922,0 0.4485,0.1922 0.5767,0.3204 0.1282,0.2563 0.2563,0.4486 0.2563,0.7049 0.0641,0.769 -0.3845,1.3457 -1.4098,1.538zm-1.7302 -3.4605l0.1282 0.9613 1.1535 -0.1923c0.1922,-0.0641 0.3204,-0.1281 0.3844,-0.2563 0.1282,-0.0641 0.1282,-0.1922 0.1282,-0.3204 -0.0641,-0.1923 -0.1282,-0.3204 -0.1922,-0.3845 -0.1282,0 -0.3204,0 -0.5768,0l-1.0253 0.1922zm0.4486 2.8837l1.2175 -0.1922c0.3845,-0.0641 0.5768,-0.3204 0.5127,-0.769 0,-0.0641 -0.0641,-0.2563 -0.1282,-0.3204 -0.064,-0.0641 -0.1922,-0.0641 -0.2563,-0.0641 -0.1282,-0.0641 -0.1922,-0.0641 -0.3204,0l-1.2176 0.1282 0.1923 1.2175zm3.3963 0.2564l0.5768 -4.7421 1.0894 -0.1923 2.4351 4.0372 -1.0253 0.1923 -0.4486 -0.8331 -1.6021 0.3204 -0.064 0.9612 -0.9613 0.2564zm1.3458 -3.845l-0.2564 1.8584 1.1535 -0.2563 -0.8971 -1.6021zm3.3963 2.8196l-1.0253 -4.3575 0.8971 -0.1923 0.8331 3.5245 2.1788 -0.5126 0.1282 0.833 -3.0119 0.7049zm3.6527 -0.8971l-1.1535 -4.2935 0.8331 -0.2563 0.5126 1.602 1.7302 -0.3845 -0.5126 -1.6661 0.8971 -0.2563 1.1535 4.2935 -0.8331 0.2563 -0.5767 -1.9225 -1.6661 0.4486 0.5126 1.9225 -0.8971 0.2563zm3.7167 -3.0759c-0.1922,-0.5127 -0.2563,-0.8972 -0.1922,-1.3458 0,-0.3845 0.1922,-0.7049 0.4486,-1.0253 0.1922,-0.3204 0.5767,-0.5767 1.0894,-0.7049 0.2563,-0.0641 0.5126,-0.0641 0.7689,-0.0641 0.2564,0 0.5768,0.0641 0.769,0.1923 0.2564,0.1282 0.5127,0.3204 0.7049,0.5767 0.1923,0.3204 0.3204,0.6408 0.4486,1.0253 0.1282,0.4486 0.1923,0.8331 0.0641,1.2817 -0.0641,0.3204 -0.1923,0.7049 -0.5127,0.9612 -0.1922,0.2563 -0.5126,0.4486 -0.9612,0.5767 -0.3845,0.1282 -0.8331,0.1282 -1.1535,0 -0.3845,-0.064 -0.7049,-0.2563 -0.8971,-0.5126 -0.2563,-0.2563 -0.4486,-0.5767 -0.5768,-0.9612zm0.769 -0.5768c0.0641,0.3204 0.1923,0.5768 0.3204,0.769 0.1923,0.1923 0.3204,0.3204 0.5768,0.5127 0.1922,0.064 0.4485,0.064 0.769,0 0.2563,-0.0641 0.4485,-0.1923 0.5767,-0.4486 0.1282,-0.1282 0.1922,-0.3845 0.1922,-0.5767 0.0641,-0.2564 0,-0.5127 -0.064,-0.7049 -0.2564,-1.0254 -0.769,-1.4739 -1.6021,-1.2176 -0.1922,0 -0.3204,0.0641 -0.5126,0.2563 -0.0641,0.1282 -0.2564,0.3204 -0.2564,0.5127 -0.0641,0.2563 -0.0641,0.5767 0,0.8971l0 0z"
       id="path755" />
    <path
       class="fil1 str0"
       d="M53.6367 126.435l33.643 0c1.7943,-3.909 4.4217,-6.1518 9.356,-7.3694 0.5767,-3.909 0.6408,-7.8821 0.5127,-11.8552 -1.8584,0 -3.2041,-0.5126 -3.9091,-1.4098 -1.6661,0.8972 -3.4604,1.0894 -5.4469,-0.1281 -2.307,1.0894 -3.8449,0.6408 -5.0625,-0.5768 -4.5498,0.2564 -6.0878,-1.4739 -4.6139,-5.3188 -1.0253,-2.371 -0.5127,-3.8449 1.6661,-4.6139 -1.7302,-3.909 0.769,-3.4604 2.307,-4.2935 -0.3204,-2.3069 0.8971,-3.5245 3.7167,-3.8449 0.1923,-1.7302 1.7302,-2.5633 3.845,-3.0119 1.3457,-1.3457 3.0118,-2.0506 5.7033,-1.4739 1.9224,-1.1534 3.7808,-1.4738 5.8314,-0.1922 2.4992,-0.8971 4.1013,-0.1282 5.3188,1.2176 2.6274,0.064 4.0372,1.1534 4.7421,2.9477 2.1147,-0.064 3.5245,0.8972 3.8449,3.3323 2.6274,0.8971 2.9478,2.5633 2.9478,4.2935 1.8584,0.769 2.8196,2.1147 2.1788,4.6139 2.1788,4.4857 0.9612,6.9209 -4.8703,6.4082 -1.9224,1.2176 -3.7167,1.0253 -5.511,0.1923 -1.6661,1.4098 -3.5245,1.4738 -5.447,0.1281 -0.833,0.9612 -1.8584,1.7943 -3.5245,1.7943 -0.5767,3.5245 -0.414,7.4789 0.1627,11.8365 4.6139,0.8331 7.6553,3.351 9.1292,7.1959l34.6969 0"
       id="path756" />
  </g>
</svg>
